<?xml version="1.0" encoding="UTF-8"?> <svg xmlns="http://www.w3.org/2000/svg" xmlns:xlink="http://www.w3.org/1999/xlink" id="Layer_2" data-name="Layer 2" viewBox="0 0 129.2 115.9"><defs><style> .cls-1 { fill: none; stroke: #fff; stroke-linecap: round; stroke-linejoin: round; stroke-width: 2px; } .cls-2 { fill: url(#linear-gradient); } </style><linearGradient id="linear-gradient" x1="0" y1="58" x2="129.2" y2="58" gradientUnits="userSpaceOnUse"><stop offset="0" stop-color="#1866a3"></stop><stop offset=".2" stop-color="#1c7cb7"></stop><stop offset=".5" stop-color="#2195cd"></stop><stop offset=".8" stop-color="#24a3db"></stop><stop offset="1" stop-color="#26a9e0"></stop></linearGradient></defs><g id="Layer_1-2" data-name="Layer 1"><g><path class="cls-2" d="M89.4,0H39.8c-5.4,0-10.3,2.9-13,7.5L2,50.5c-2.7,4.6-2.7,10.4,0,15l24.8,43c2.7,4.6,7.6,7.5,13,7.5h49.6c5.4,0,10.3-2.9,13-7.5l24.8-43c2.7-4.6,2.7-10.4,0-15L102.4,7.5c-2.7-4.6-7.6-7.5-13-7.5Z"></path><g><polyline class="cls-1" points="84.9 79.9 93.3 79.9 93.3 88.4"></polyline><path class="cls-1" d="M32.3,43.5c-2.1,4.6-3.2,9.5-3.2,14.4,0,9.1,3.5,18.2,10.5,25.2,6.9,6.9,15.9,10.2,25,10.3,9.9,0,17.2-2.9,23.7-8.4,1.1-1,5.1-5.1,5.1-5.1"></path><path class="cls-1" d="M96.9,72.4c2.1-4.6,3.2-9.5,3.2-14.4,0-9.1-3.5-18.2-10.5-25.2-6.9-6.9-15.9-10.2-25-10.3-9.9,0-17.2,2.9-23.7,8.4-1.1,1-5.1,5.1-5.1,5.1"></path><polyline class="cls-1" points="44.3 36 35.9 36 35.9 27.5"></polyline><circle class="cls-1" cx="81.5" cy="69.8" r="5.1" transform="translate(4 144) rotate(-84.3)"></circle><line class="cls-1" x1="73.1" y1="69.8" x2="76.4" y2="69.8"></line><path class="cls-1" d="M86.6,69.8h5.1v-8.9c0-.4,0-.7-.2-1l-4.5-10.2c-.4-1-1.2-1.6-2.2-1.7l-11.7-1.2"></path><circle class="cls-1" cx="51.1" cy="69.8" r="5.1" transform="translate(-4.8 3.8) rotate(-4.1)"></circle><polyline class="cls-1" points="56.2 69.8 73.1 69.8 73.1 42.8 39.3 42.8 39.3 69.8 46 69.8"></polyline></g></g></g></svg> 