<?xml version="1.0" encoding="UTF-8"?> <svg xmlns="http://www.w3.org/2000/svg" id="Layer_2" data-name="Layer 2" viewBox="0 0 142 105.7"><defs><style> .cls-1 { fill: none; stroke: #1866a4; stroke-linecap: round; stroke-linejoin: round; stroke-width: 4.3px; } </style></defs><g id="Layer_1-2" data-name="Layer 1"><g><g><path class="cls-1" d="M78.9,92.3c0,6.2,5,11.3,11.3,11.3h38.4c6.2,0,11.3-5,11.3-11.3V13.4c0-6.2-5-11.3-11.3-11.3h-38.1c-6.2,0-11.2,5-11.3,11.2v14.2"></path><line class="cls-1" x1="113.1" y1="9.6" x2="105.6" y2="9.6"></line><line class="cls-1" x1="99.8" y1="9.6" x2="99.8" y2="9.6"></line></g><g><g><path class="cls-1" d="M103.4,85.2H38.3c-1.8,0-3.2-1.4-3.2-3.2v-7"></path><line class="cls-1" x1="118.3" y1="85.2" x2="112.7" y2="85.2"></line><path class="cls-1" d="M35.1,65.9v-27.2c0-1.8,1.4-3.2,3.2-3.2H103.4"></path><path class="cls-1" d="M116.4,64.3v5c-3.8,0-6.9,3.1-6.9,6.9H51.1c0-3.8-3.1-6.9-6.9-6.9v-17.8c3.8,0,6.9-3.1,6.9-6.9h0s24.2,0,24.2,0"></path><path class="cls-1" d="M85,44.5h24.5c0,1.7,.6,3.3,1.6,4.5"></path><ellipse class="cls-1" cx="80.3" cy="60.3" rx="7.3" ry="9.7"></ellipse></g><g><line class="cls-1" x1="48.5" y1="27.1" x2="39.6" y2="27.1"></line><line class="cls-1" x1="66.4" y1="27.1" x2="57.5" y2="27.1"></line><line class="cls-1" x1="44.6" y1="93.5" x2="31.2" y2="93.5"></line><line class="cls-1" x1="27.8" y1="47.6" x2="12.4" y2="47.6"></line><line class="cls-1" x1="10.4" y1="61.3" x2="2.2" y2="61.3"></line><line class="cls-1" x1="35.1" y1="61.3" x2="20.7" y2="61.3"></line><line class="cls-1" x1="40.1" y1="75" x2="14.4" y2="75"></line></g></g></g></g></svg> 