<?xml version="1.0" encoding="UTF-8"?> <svg xmlns="http://www.w3.org/2000/svg" xmlns:xlink="http://www.w3.org/1999/xlink" id="Layer_2" data-name="Layer 2" viewBox="0 0 129.2 115.9"><defs><style> .cls-1 { fill: none; stroke: #fff; stroke-linecap: round; stroke-linejoin: round; stroke-width: 2px; } .cls-2 { fill: url(#linear-gradient); } </style><linearGradient id="linear-gradient" x1="0" y1="58" x2="129.2" y2="58" gradientUnits="userSpaceOnUse"><stop offset="0" stop-color="#1866a3"></stop><stop offset=".2" stop-color="#1c7cb7"></stop><stop offset=".5" stop-color="#2195cd"></stop><stop offset=".8" stop-color="#24a3db"></stop><stop offset="1" stop-color="#26a9e0"></stop></linearGradient></defs><g id="Layer_1-2" data-name="Layer 1"><g><path class="cls-2" d="M89.4,0H39.8c-5.4,0-10.3,2.9-13,7.5L2,50.5c-2.7,4.6-2.7,10.4,0,15l24.8,43c2.7,4.6,7.6,7.5,13,7.5h49.6c5.4,0,10.3-2.9,13-7.5l24.8-43c2.7-4.6,2.7-10.4,0-15L102.4,7.5c-2.7-4.6-7.6-7.5-13-7.5Z"></path><path class="cls-1" d="M52.4,90.9c-14.9-3.9-26-17.5-26-33.7S42,22.5,61.2,22.5s34.8,15.6,34.8,34.8m-14.9-19.1l-16.7,16.7m-6.5,.9l-13-7.5m16.3,5c-2.2,0-3.9,1.8-3.9,3.9s1.8,3.9,3.9,3.9,3.9-1.8,3.9-3.9-1.8-3.9-3.9-3.9h0Zm0-22.5v2.4m-26.4,24h2.4m65.5-9.2l-6,12.6-8.6-10.9m5.4,43.7v-26.2l-12.8,18.5,18-.3m-21.1,8h-16.4l9.8-9.8m0,0c6.9-6.1,4.9-12.3,.7-14.7-6.5-3.6-11.4,3.4-10.7,8.1"></path></g></g></svg> 