<?xml version="1.0" encoding="UTF-8"?> <svg xmlns="http://www.w3.org/2000/svg" xmlns:xlink="http://www.w3.org/1999/xlink" id="Layer_2" data-name="Layer 2" viewBox="0 0 2021 1278.6"><defs><style> .cls-1 { fill: url(#linear-gradient); } </style><linearGradient id="linear-gradient" x1="1010.5" y1="0" x2="1010.5" y2="1278.6" gradientUnits="userSpaceOnUse"><stop offset=".6" stop-color="#fff"></stop><stop offset=".6" stop-color="#d6eff9"></stop><stop offset=".9" stop-color="#58bde7"></stop><stop offset="1" stop-color="#26a9e0"></stop></linearGradient></defs><g id="Layer_2-2" data-name="Layer 2"><path class="cls-1" d="M1622.3,2c24.2,0,46.8,13,58.9,34l328.7,569.3c12.1,21,12.1,47,0,68l-328.7,569.3c-12.1,21-34.7,34-58.9,34H398.7c-24.2,0-46.8-13-58.9-34L11.1,673.3c-12.1-21-12.1-47,0-68L339.8,36c12.1-21,34.7-34,58.9-34H1622.3m0-2H398.7c-25,0-48.1,13.3-60.6,35L9.4,604.3c-12.5,21.7-12.5,48.3,0,70l328.7,569.3c12.5,21.7,35.6,35,60.6,35H1622.3c25,0,48.1-13.3,60.6-35l328.7-569.3c12.5-21.7,12.5-48.3,0-70L1682.9,35c-12.5-21.7-35.6-35-60.6-35h0Z"></path></g></svg> 