<?xml version="1.0" encoding="UTF-8"?> <svg xmlns="http://www.w3.org/2000/svg" xmlns:xlink="http://www.w3.org/1999/xlink" version="1.1" id="Layer_2_00000023259275706139612400000013284410235909801134_" x="0px" y="0px" viewBox="0 0 1649.4 626.8" style="enable-background:new 0 0 1649.4 626.8;" xml:space="preserve"> <style type="text/css"> .st0{fill:url(#SVGID_1_);} </style> <g id="Layer_1-2"> <g> <linearGradient id="SVGID_1_" gradientUnits="userSpaceOnUse" x1="0.4" y1="-172.6" x2="1651.7" y2="-172.6" gradientTransform="matrix(1 0 0 -1 0 142.7)"> <stop offset="0" style="stop-color:#FFFFFF"></stop> <stop offset="0.25" style="stop-color:#26A9E0"></stop> <stop offset="0.5" style="stop-color:#1866A3"></stop> <stop offset="0.75" style="stop-color:#26A9E0"></stop> <stop offset="1" style="stop-color:#FFFFFF"></stop> </linearGradient> <path class="st0" d="M1641.7,628.8H339.6c-8,0-15.4-4.3-19.3-11.1l-80.5-139.4c-4-6.9-4-15.4,0-22.3l80.6-139.6 c4.1-6.8,11.5-10.9,19.2-10.9h970.2c0.9,0,1.8-0.5,2.3-1.3l80.5-139.4c0.4-0.8,0.4-1.8,0-2.5L1312.1,23c-0.5-0.8-1.4-1.4-2.3-1.4 H10.3c-5.4,0-9.9-4.4-9.9-9.9s4.4-9.9,9.9-9.9h1299.5c7.8,0,15.1,4.2,19.2,11l0.1,0.2l80.5,139.4c4,6.9,4,15.4,0,22.3l-80.5,139.4 c-4,6.9-11.4,11.1-19.3,11.1H339.6c-0.9,0-1.8,0.5-2.3,1.4l-80.4,139.3c-0.4,0.8-0.4,1.8,0,2.5l80.5,139.4 c0.5,0.8,1.3,1.3,2.3,1.3h1302.2c5.4,0,9.8,4.4,9.8,9.8C1651.6,624.4,1647.2,628.8,1641.7,628.8z"></path> </g> </g> </svg> 