<?xml version="1.0" encoding="UTF-8"?> <svg xmlns="http://www.w3.org/2000/svg" id="Layer_2" data-name="Layer 2" viewBox="0 0 109.7 109.7"><defs><style> .cls-1 { fill: none; stroke: #1866a4; stroke-linecap: round; stroke-linejoin: round; stroke-width: 4.3px; } </style></defs><g id="Layer_1-2" data-name="Layer 1"><g id="automated_testing" data-name="automated testing"><path class="cls-1" d="M75.1,36.7c-5-5.5-12.2-9-20.2-9-15,0-27.2,12.2-27.2,27.2s12.2,27.2,27.2,27.2,27.2-12.2,27.2-27.2"></path><polyline class="cls-1" points="37.8 54.8 54.8 71.8 104.1 19.1"></polyline><path class="cls-1" d="M91.9,17.5l-4.7-4.7c-1.3-1.3-3.5-1.3-4.8,0l-1.7,1.7c-1,1-2.4,1.3-3.7,.7l-9.9-4.1c-1.3-.5-2.1-1.8-2.1-3.1v-2.4c0-1.9-1.5-3.4-3.4-3.4h-13.6c-1.9,0-3.4,1.5-3.4,3.4v2.4c0,1.4-.8,2.6-2.1,3.1l-9.9,4.1c-1.3,.5-2.7,.2-3.7-.7l-1.7-1.7c-1.3-1.3-3.5-1.3-4.8,0l-9.6,9.6c-1.3,1.3-1.3,3.5,0,4.8l1.7,1.7c1,1,1.3,2.4,.7,3.7l-4.1,9.9c-.5,1.3-1.8,2.1-3.1,2.1h-2.4c-1.9,0-3.4,1.5-3.4,3.4v13.6c0,1.9,1.5,3.4,3.4,3.4h2.4c1.4,0,2.6,.8,3.1,2.1l4.1,9.9c.5,1.3,.2,2.7-.7,3.7l-1.7,1.7c-1.3,1.3-1.3,3.5,0,4.8l9.6,9.6c1.3,1.3,3.5,1.3,4.8,0l1.7-1.7c1-1,2.4-1.3,3.7-.7l9.9,4.1c1.3,.5,2.1,1.8,2.1,3.1v2.4c0,1.9,1.5,3.4,3.4,3.4h13.6c1.9,0,3.4-1.5,3.4-3.4v-2.4c0-1.4,.8-2.6,2.1-3.1l9.9-4.1c1.3-.5,2.7-.2,3.7,.7l1.7,1.7c1.3,1.3,3.5,1.3,4.8,0l9.6-9.6c1.3-1.3,1.3-3.5,0-4.8l-1.7-1.7c-1-1-1.3-2.4-.7-3.7l4.1-9.9c.5-1.3,1.8-2.1,3.1-2.1h2.4c1.9,0,3.4-1.5,3.4-3.4v-13.6c0-1.9-1.5-3.4-3.4-3.4h-2.4c-1.4,0-2.6-.8-3.1-2.1l-1.3-3.1"></path></g></g></svg> 