<?xml version="1.0" encoding="UTF-8"?> <svg xmlns="http://www.w3.org/2000/svg" xmlns:xlink="http://www.w3.org/1999/xlink" id="Layer_2" data-name="Layer 2" viewBox="0 0 127.7 115.9"><defs><style> .cls-1 { fill: none; stroke: #fff; stroke-linecap: round; stroke-linejoin: round; stroke-width: 1.8px; } .cls-2 { fill: url(#linear-gradient); } </style><linearGradient id="linear-gradient" x1="0" y1="58" x2="127.7" y2="58" gradientUnits="userSpaceOnUse"><stop offset="0" stop-color="#1866a3"></stop><stop offset=".2" stop-color="#1c7cb7"></stop><stop offset=".5" stop-color="#2195cd"></stop><stop offset=".8" stop-color="#24a3db"></stop><stop offset="1" stop-color="#26a9e0"></stop></linearGradient></defs><g id="Layer_1-2" data-name="Layer 1"><g><path class="cls-2" d="M85.8,0H41.9c-7.1,0-13.7,3.8-17.3,10L2.7,48c-3.6,6.2-3.6,13.8,0,20l21.9,38c3.6,6.2,10.2,10,17.3,10h43.8c7.1,0,13.7-3.8,17.3-10l21.9-38c3.6-6.2,3.6-13.8,0-20L103.1,10c-3.6-6.2-10.2-10-17.3-10Z"></path><g><g><path class="cls-1" d="M70.1,49.9l-4.7-5.2c-.4-.4-1-.6-1.6-.6-.6,0-1.2,.2-1.6,.6l-4.7,5.2"></path><path class="cls-1" d="M41.7,50.7l14.8-15.9c4-4.3,10.6-4.3,14.6,0l14.8,15.9"></path><path class="cls-1" d="M35.9,48.5c5.2-.6,10.3,6.6,11.4,16,1.1,9.4-2.3,17.6-7.6,18.1"></path><path class="cls-1" d="M33.3,66.8c.5,4.6-.8,8.6-3,8.8-2.2,.2-4.4-3.3-4.9-8-.5-4.6,.8-8.6,3-8.8"></path><path class="cls-1" d="M38.8,66.2c1.1,9.4-2.3,17.6-7.6,18.1-5.2,.6-10.3-6.6-11.4-16-1.1-9.4,2.3-17.6,7.6-18.1,5.2-.6,10.3,6.6,11.4,16Z"></path><line class="cls-1" x1="35.7" y1="48.5" x2="26.8" y2="50.3"></line><line class="cls-1" x1="40.6" y1="82.5" x2="31.7" y2="84.3"></line><path class="cls-1" d="M46.6,74.8l7.2,4.9c1.1,.8,2.4,1.2,3.7,1.2h12.6c1.3,0,2.6-.4,3.7-1.2l7.2-4.9"></path><line class="cls-1" x1="58.5" y1="62.7" x2="58.5" y2="67.5"></line><line class="cls-1" x1="63.8" y1="61.5" x2="63.8" y2="68.8"></line><line class="cls-1" x1="69.1" y1="62.7" x2="69.1" y2="67.5"></line></g><g><path class="cls-1" d="M91.7,48.5c-5.2-.6-10.3,6.6-11.4,16-1.1,9.4,2.3,17.6,7.6,18.1"></path><path class="cls-1" d="M94.4,66.8c-.5,4.6,.8,8.6,3,8.8,2.2,.2,4.4-3.3,4.9-8,.5-4.6-.8-8.6-3-8.8"></path><path class="cls-1" d="M88.9,66.2c-1.1,9.4,2.3,17.6,7.6,18.1,5.2,.6,10.3-6.6,11.4-16,1.1-9.4-2.3-17.6-7.6-18.1-5.2-.6-10.3,6.6-11.4,16Z"></path><line class="cls-1" x1="91.9" y1="48.5" x2="100.9" y2="50.3"></line><line class="cls-1" x1="87" y1="82.5" x2="96" y2="84.3"></line></g></g></g></g></svg> 