<?xml version="1.0" encoding="UTF-8"?> <svg xmlns="http://www.w3.org/2000/svg" id="Layer_2" data-name="Layer 2" viewBox="0 0 125 122.4"><defs><style> .cls-1 { fill: none; stroke: #1866a4; stroke-linecap: round; stroke-linejoin: round; stroke-width: 4px; } </style></defs><g id="Layer_1-2" data-name="Layer 1"><g><circle class="cls-1" cx="82.7" cy="112.3" r="8.1" transform="translate(-37.2 183.5) rotate(-84.3)"></circle><line class="cls-1" x1="69.2" y1="112.3" x2="74.6" y2="112.3"></line><path class="cls-1" d="M90.8,112.3h8.1v-16.9c0-.6-.1-1.1-.3-1.6l-7.2-18.9c-.6-1.5-1.9-2.6-3.5-2.8l-18.6-1.9"></path><polyline class="cls-1" points="90 91.5 79.8 89.8 77.6 80.8"></polyline><path class="cls-1" d="M42.5,54.5c-.1-1.3-.2-2.7-.2-4,0-22.3,18.1-40.3,40.3-40.3s40.3,18.1,40.3,40.3-6.4,25-16.3,32.4"></path><circle class="cls-1" cx="20.8" cy="112.3" r="8.1" transform="translate(-7.9 1.8) rotate(-4.1)"></circle><polyline class="cls-1" points="28.9 112.3 69.2 112.3 69.2 63.9 2 63.9 2 112.3 12.8 112.3"></polyline><line class="cls-1" x1="82.7" y1="10.1" x2="82.7" y2="2"></line><line class="cls-1" x1="77.3" y1="2" x2="88.1" y2="2"></line><line class="cls-1" x1="82.7" y1="20.8" x2="82.7" y2="50.4"></line><line class="cls-1" x1="54.2" y1="21.9" x2="49.1" y2="16.8"></line><line class="cls-1" x1="111.2" y1="21.9" x2="116.3" y2="16.8"></line></g></g></svg> 