<?xml version="1.0" encoding="UTF-8"?> <svg xmlns="http://www.w3.org/2000/svg" id="Layer_2" data-name="Layer 2" viewBox="0 0 131.5 109.3"><defs><style> .cls-1 { fill: none; stroke: #1866a4; stroke-linecap: round; stroke-linejoin: round; stroke-width: 4px; } </style></defs><g id="Layer_1-2" data-name="Layer 1"><g><polyline class="cls-1" points="2 24.2 2 2 85.2 2 85.2 68.5 71.3 68.5"></polyline><circle class="cls-1" cx="110.1" cy="68.5" r="8.3" transform="translate(31.1 171.4) rotate(-84.3)"></circle><line class="cls-1" x1="85.2" y1="68.5" x2="101.8" y2="68.5"></line><path class="cls-1" d="M118.4,68.5h11.1v-7.9c0-3.2-.6-5.9-2.8-8.9-.8-1.1-7.6-7.7-10.7-9.8-4.3-7.6-5.2-9-8.7-15"></path><path class="cls-1" d="M93.5,26.9h13.9c-2.5-4.9-12.5-16.7-17.7-16.6h-4.4"></path><polyline class="cls-1" points="93.5 36.9 96.3 44.8 109 46.2"></polyline><circle class="cls-1" cx="32.5" cy="54.7" r="30.5"></circle><path class="cls-1" d="M13.7,49.7c1.5-5.7,5.6-10.4,10.9-12.8"></path><line class="cls-1" x1="54.1" y1="76.2" x2="85.2" y2="107.3"></line></g></g></svg> 