<?xml version="1.0" encoding="UTF-8"?> <svg xmlns="http://www.w3.org/2000/svg" id="Layer_2" data-name="Layer 2" viewBox="0 0 1017.4 146.2"><defs><style> .cls-1 { fill: #26a9e0; } </style></defs><g id="Layer_1-2" data-name="Layer 1"><path class="cls-1" d="M971,2c2.8,0,5.5,1.5,6.9,4l36.4,63.1c1.4,2.5,1.4,5.5,0,8l-36.4,63.1c-1.4,2.5-4.1,4-6.9,4H46.4c-2.8,0-5.5-1.5-6.9-4L3.1,77.1c-1.4-2.5-1.4-5.5,0-8L39.5,6c1.4-2.5,4.1-4,6.9-4H971m0-2H46.4c-3.6,0-6.9,1.9-8.7,5L1.3,68.1c-1.8,3.1-1.8,6.9,0,10l36.4,63.1c1.8,3.1,5.1,5,8.7,5H971c3.6,0,6.9-1.9,8.7-5l36.4-63.1c1.8-3.1,1.8-6.9,0-10l-36.4-63.1c-1.8-3.1-5.1-5-8.7-5h0Z"></path></g></svg> 