<?xml version="1.0" encoding="UTF-8"?> <svg xmlns:xlink="http://www.w3.org/1999/xlink" xmlns="http://www.w3.org/2000/svg" class="u-svg-link" preserveAspectRatio="xMidYMin slice" viewBox="0 0 118.8 113.8" style="" width="118.8" height="113.8"><defs><svg class="u-svg-content" viewBox="0 0 118.8 113.8" id="svg-8bda"><defs><style> .cls-1 { fill: none; stroke: #1866a4; stroke-linecap: round; stroke-linejoin: round; stroke-width: 4px; } </style></defs><g id="Layer_1-2"><g><path class="cls-1" d="M36.9,111.9V49.4h12.5c7.5,0,10-4.4,10-10H14.5c-4.7,0-12.5,3.8-12.5,15v17.5c0,5.4,4.6,10,10,10" stroke="#1866A4" fill="none" stroke-width="4px"></path><line class="cls-1" x1="12" y1="54.4" x2="12" y2="111.9" stroke="#1866A4" fill="none" stroke-width="4px"></line><rect class="cls-1" x="14.5" y="9.5" width="17.5" height="22.5" rx="3" ry="3" stroke="#1866A4" fill="none" stroke-width="4px"></rect><line class="cls-1" x1="24.5" y1="74.4" x2="24.5" y2="111.9" stroke="#1866A4" fill="none" stroke-width="4px"></line><polyline class="cls-1" points="71.9 76.9 49.4 76.9 49.4 56.9" stroke="#1866A4" fill="none" stroke-width="4px"></polyline><polyline class="cls-1" points="49.4 32 49.4 22 71.9 22" stroke="#1866A4" fill="none" stroke-width="4px"></polyline><rect class="cls-1" x="71.9" y="2" width="22.5" height="74.9" stroke="#1866A4" fill="none" stroke-width="4px"></rect><polyline class="cls-1" points="94.4 39.4 116.8 39.4 116.8 76.9 94.4 76.9" stroke="#1866A4" fill="none" stroke-width="4px"></polyline></g></g></svg></defs><use xlink:href="#svg-8bda" fill="#111111"></use></svg> 