<?xml version="1.0" encoding="UTF-8"?> <svg xmlns:xlink="http://www.w3.org/1999/xlink" xmlns="http://www.w3.org/2000/svg" class="u-svg-link" preserveAspectRatio="xMidYMin slice" viewBox="0 0 120.7 123.6" style="" width="120.7" height="123.6"><defs><svg class="u-svg-content" viewBox="0 0 120.7 123.6" id="svg-f301"><defs><style> .cls-1 { fill: none; stroke: #1866a4; stroke-linecap: round; stroke-linejoin: round; stroke-width: 4px; } </style></defs><g id="Layer_1-2"><g><polyline class="cls-1" points="87.4 39 87.4 13.4 76 2 2 2 2 110.2 41.9 110.2" stroke="#1866A4" fill="none" stroke-width="4px"></polyline><polyline class="cls-1" points="70.3 10.5 70.3 19.1 78.9 19.1" stroke="#1866A4" fill="none" stroke-width="4px"></polyline><line class="cls-1" x1="16.2" y1="81.7" x2="16.2" y2="98.8" stroke="#1866A4" fill="none" stroke-width="4px"></line><line class="cls-1" x1="39" y1="78.9" x2="39" y2="98.8" stroke="#1866A4" fill="none" stroke-width="4px"></line><line class="cls-1" x1="27.6" y1="73.2" x2="27.6" y2="98.8" stroke="#1866A4" fill="none" stroke-width="4px"></line><ellipse class="cls-1" cx="73.2" cy="84.6" rx="19.9" ry="8.5" stroke="#1866A4" fill="none" stroke-width="4px"></ellipse><path class="cls-1" d="M93.1,84.6v14.2c0,4.7-8.9,8.5-19.9,8.5s-19.9-3.8-19.9-8.5v-14.2" stroke="#1866A4" fill="none" stroke-width="4px"></path><path class="cls-1" d="M53.2,98.8v14.2c0,4.7,8.9,8.5,19.9,8.5s19.9-3.8,19.9-8.5v-14.2" stroke="#1866A4" fill="none" stroke-width="4px"></path><path class="cls-1" d="M118.7,70.3v14.2c0,4.3-7.4,7.9-17.1,8.5" stroke="#1866A4" fill="none" stroke-width="4px"></path><ellipse class="cls-1" cx="98.8" cy="56.1" rx="19.9" ry="8.5" stroke="#1866A4" fill="none" stroke-width="4px"></ellipse><line class="cls-1" x1="78.9" y1="67.5" x2="78.9" y2="56.1" stroke="#1866A4" fill="none" stroke-width="4px"></line><path class="cls-1" d="M118.7,56.1v14.2c0,4.5-8,8.1-18.2,8.5" stroke="#1866A4" fill="none" stroke-width="4px"></path><path class="cls-1" d="M101.6,107.2c9.7-.6,17.1-4.2,17.1-8.5v-14.2" stroke="#1866A4" fill="none" stroke-width="4px"></path><circle class="cls-1" cx="50.4" cy="47.5" r="8.5" stroke="#1866A4" fill="none" stroke-width="4px"></circle><circle class="cls-1" cx="24.8" cy="27.6" r="8.5" stroke="#1866A4" fill="none" stroke-width="4px"></circle><line class="cls-1" x1="21.9" y1="56.1" x2="53.2" y2="19.1" stroke="#1866A4" fill="none" stroke-width="4px"></line></g></g></svg></defs><use xlink:href="#svg-f301" fill="#111111"></use></svg> 