<?xml version="1.0" encoding="UTF-8"?> <svg xmlns="http://www.w3.org/2000/svg" xmlns:xlink="http://www.w3.org/1999/xlink" id="Layer_2" data-name="Layer 2" viewBox="0 0 1920 1080" width="1920" height="1080"><defs><style> .cls-1 { clip-path: url(#clippath); } .cls-2 { fill: none; } .cls-3 { fill: url(#linear-gradient); } </style><clipPath id="clippath"><rect class="cls-2" width="1920" height="1080"></rect></clipPath><linearGradient id="linear-gradient" x1="53.2" y1="1470.1" x2="3717.7" y2="1923" gradientUnits="userSpaceOnUse"><stop offset="0" stop-color="#fff"></stop><stop offset="1" stop-color="#26a9e0"></stop></linearGradient></defs><g id="Layer_2-2" data-name="Layer 2"><g class="cls-1"><path class="cls-3" d="M3161.9,747.1c27.8,0,53.7,14.9,67.5,39l503.1,871.4c13.9,24.1,13.9,53.9,0,78l-503.1,871.4c-13.9,24.1-39.8,39-67.5,39H609c-27.8,0-53.7-14.9-67.6-39L38.3,1735.6c-13.9-24.1-13.9-53.9,0-78l503.1-871.4c13.9-24.1,39.8-39,67.6-39H3161.9m0-2H609c-28.6,0-55,15.2-69.3,40L36.5,1656.6c-14.3,24.8-14.3,55.2,0,80l503.1,871.4c14.3,24.8,40.7,40,69.3,40H3161.9c28.6,0,55-15.2,69.3-40l503.1-871.4c14.3-24.8,14.3-55.2,0-80l-503.1-871.4c-14.3-24.8-40.7-40-69.3-40h0Z"></path></g></g></svg> 