<?xml version="1.0" encoding="UTF-8"?> <svg xmlns:xlink="http://www.w3.org/1999/xlink" xmlns="http://www.w3.org/2000/svg" class="u-svg-link" preserveAspectRatio="xMidYMin slice" viewBox="0 0 106.5 106.5" style="" width="106.5" height="106.5"><defs><svg class="u-svg-content" viewBox="0 0 106.5 106.5" id="svg-c158"><defs><style> .cls-1 { fill: none; stroke: #1866a4; stroke-linecap: round; stroke-linejoin: round; stroke-width: 4px; } </style></defs><g id="Layer_1-2"><g><line class="cls-1" x1="22" y1="84.4" x2="37.6" y2="84.4" stroke="#1866A4" fill="none" stroke-width="4px"></line><path class="cls-1" d="M95.6,93.3v11.1H42.1V24.3c0-3.7-3-6.7-6.7-6.7s-6.7,3-6.7,6.7v53.5c0,3.7-3,6.7-6.7,6.7s-6.7-3-6.7-6.7V8.7c0-3.7-3-6.7-6.7-6.7S2,5,2,8.7v11.1H10.9" stroke="#1866A4" fill="none" stroke-width="4px"></path><path class="cls-1" d="M35.4,17.6h53.5c3.7,0,6.7,3,6.7,6.7v13.4" stroke="#1866A4" fill="none" stroke-width="4px"></path><path class="cls-1" d="M10.9,2H59.9c3.7,0,6.7,3,6.7,6.7v4.5" stroke="#1866A4" fill="none" stroke-width="4px"></path><circle class="cls-1" cx="77.7" cy="62.2" r="22.3" stroke="#1866A4" fill="none" stroke-width="4px"></circle><line class="cls-1" x1="91.1" y1="80" x2="104.5" y2="93.3" stroke="#1866A4" fill="none" stroke-width="4px"></line><line class="cls-1" x1="68.8" y1="73.3" x2="68.8" y2="66.6" stroke="#1866A4" fill="none" stroke-width="4px"></line><line class="cls-1" x1="77.7" y1="73.3" x2="77.7" y2="48.8" stroke="#1866A4" fill="none" stroke-width="4px"></line><line class="cls-1" x1="86.7" y1="73.3" x2="86.7" y2="57.7" stroke="#1866A4" fill="none" stroke-width="4px"></line></g></g></svg></defs><use xlink:href="#svg-c158" fill="#111111"></use></svg> 