<?xml version="1.0" encoding="UTF-8"?> <svg xmlns="http://www.w3.org/2000/svg" xmlns:xlink="http://www.w3.org/1999/xlink" id="Layer_2" data-name="Layer 2" viewBox="0 0 9.8 8.7"><defs><style> .cls-1 { fill: url(#linear-gradient); } </style><linearGradient id="linear-gradient" x1="0" y1="4.3" x2="9.8" y2="4.3" gradientUnits="userSpaceOnUse"><stop offset="0" stop-color="#1866a3"></stop><stop offset=".2" stop-color="#1c7cb7"></stop><stop offset=".5" stop-color="#2195cd"></stop><stop offset=".8" stop-color="#24a3db"></stop><stop offset="1" stop-color="#26a9e0"></stop></linearGradient></defs><g id="Layer_1-2" data-name="Layer 1"><path class="cls-1" d="M6.6,1.5l1.6,2.8-1.6,2.8H3.3l-1.6-2.8L3.3,1.5h3.3m.6-1.5H2.7c-.2,0-.3,0-.4,.3L0,4.1c0,.2,0,.3,0,.5l2.2,3.8c0,.2,.3,.3,.4,.3H7.1c.2,0,.3,0,.4-.3l2.2-3.8c0-.2,0-.3,0-.5L7.6,.3c0-.2-.3-.3-.4-.3h0Z"></path></g></svg> 