<?xml version="1.0" encoding="UTF-8"?> <svg xmlns="http://www.w3.org/2000/svg" xmlns:xlink="http://www.w3.org/1999/xlink" id="Layer_1" data-name="Layer 1" viewBox="0 0 663 173" width="663" height="173"><defs><style> .cls-1 { fill: url(#linear-gradient-2); } .cls-2 { fill: url(#linear-gradient-5); } .cls-3 { fill: url(#linear-gradient-3); } .cls-4 { fill: url(#linear-gradient); } .cls-5 { fill: #464547; } .cls-6 { fill: url(#linear-gradient-4); } </style><linearGradient id="linear-gradient" x1="58" y1="117.6" x2="58" y2="50.2" gradientUnits="userSpaceOnUse"><stop offset="0" stop-color="#1866a4"></stop><stop offset=".2" stop-color="#1d7db9"></stop><stop offset=".5" stop-color="#2296cf"></stop><stop offset=".8" stop-color="#25a4dc"></stop><stop offset="1" stop-color="#27aae1"></stop></linearGradient><linearGradient id="linear-gradient-2" x1="51.1" y1="123.1" x2="51.1" y2="74.1" xlink:href="#linear-gradient"></linearGradient><linearGradient id="linear-gradient-3" x1="70.1" y1="35.2" x2="141.5" y2="35.2" xlink:href="#linear-gradient"></linearGradient><linearGradient id="linear-gradient-4" x1="107.9" y1="128.4" x2="43.7" y2="128.4" xlink:href="#linear-gradient"></linearGradient><linearGradient id="linear-gradient-5" x1="121.6" y1="142.1" x2="121.6" y2="76.3" xlink:href="#linear-gradient"></linearGradient></defs><g><g><path class="cls-4" d="M37.1,113.3s4.9,7.5,13.5,7.5h19.5c-3.2-5.6-10.1-17.7-15.2-26.4l-1.7-3s-3.5-7.5,0-14.4c.9-2.1,1.7-3.3,1.7-3.3,0,0,19.2-32.9,24.3-41.7,5.1-8.8,13.8-8.9,13.8-8.9h-.1s-29.4,0-29.4,0c0,0-7.4,.3-12.9,9.2-5.5,8.8-25.8,44.5-25.8,44.5,0,0-4.7,7.1,.6,16.3,2,3.5,6.2,10.7,10.6,18.3l1.2,2Z"></path><path class="cls-1" d="M51.1,137.4s0,0,0,0c0,0,0,0,0,0Z"></path></g><path class="cls-3" d="M79.2,31.8c-1.8,3.1-5.3,9.1-9.1,15.6h71.4l-14.2-24.5h-34.3s-8.7,0-13.8,8.9Z"></path><path class="cls-6" d="M87.5,120.8H50.6c-8.6,0-13.5-7.5-13.5-7.5l-1.2-2c7.3,12.6,15.1,26.2,15.1,26.2,0,0,4.1,8.1,14.9,8.1h43.4v-24.7h-21.9Z"></path><path class="cls-2" d="M155.6,71.8H87.7l-7.1,12.4,7,12.1h21.8v49.1h15.8s8.6,1.1,8.6-8.4v-40.8h21.9l7-12.1-7.1-12.4Z"></path></g><g><path class="cls-5" d="M236.1,111.2c-2.7,3.5-5.8,6-9.1,7.5-3.3,1.4-6.7,2.1-10.1,2.1-5.4,0-10.3-1-14.5-2.9-4.3-1.9-7.8-4.5-10.8-7.7-2.9-3.3-5.2-7.1-6.8-11.6-1.6-4.4-2.4-9.2-2.4-14.2s.8-10,2.4-14.5c1.6-4.5,3.8-8.4,6.8-11.8,3-3.3,6.5-5.9,10.8-7.8,4.3-1.9,9.1-2.8,14.5-2.8s7.1,.5,10.4,1.6c3.4,1.1,6.4,2.7,9.1,4.7,2.7,2.1,4.9,4.7,6.7,7.8,1.8,3.1,2.9,6.6,3.3,10.6h-14.7c-.9-3.9-2.7-6.9-5.4-8.8-2.7-2-5.8-3-9.5-3s-6.4,.7-8.8,2c-2.4,1.4-4.4,3.1-5.9,5.4-1.5,2.3-2.6,4.8-3.3,7.7-.7,2.9-1,5.9-1,8.9s.4,5.8,1,8.6c.7,2.8,1.8,5.3,3.3,7.5,1.5,2.2,3.5,4,5.9,5.3,2.4,1.4,5.4,2,8.8,2,5,0,8.9-1.3,11.8-3.9,2.8-2.6,4.5-6.3,4.9-11.2h-15.5v-11.5h29.4v39.5h-9.4l-2-9.6Z"></path><path class="cls-5" d="M252.2,68.5h13.2v9.4h.2c.6-1.6,1.5-3,2.7-4.4,1.1-1.3,2.4-2.5,3.8-3.4,1.4-.9,3-1.7,4.7-2.2,1.6-.5,3.4-.8,5-.8s2.1,.2,3,.5v12.9c-.6-.1-1.4-.2-2.3-.3-.9-.1-1.8-.2-2.7-.2-2.6,0-4.7,.4-6.5,1.3-1.8,.9-3.2,2-4.3,3.5-1.1,1.5-1.9,3.2-2.3,5.2-.5,2-.7,4.1-.7,6.3v24.5h-13.9v-52.3Z"></path><path class="cls-5" d="M288.8,84c.2-3.3,1-6,2.5-8.1,1.4-2.1,3.3-3.9,5.5-5.2,2.2-1.3,4.7-2.2,7.5-2.8,2.7-.6,5.6-.8,8.4-.8s5.1,.2,7.8,.5c2.6,.4,5,1.1,7.2,2.1,2.1,1.1,3.9,2.5,5.3,4.4,1.4,1.9,2.1,4.3,2.1,7.4v26.4c0,2.3,.1,4.5,.4,6.6,.3,2.1,1.3,5.3,2,6.4h-14.1c-.3-.8-1.1-3.2-1.3-4-.2-.8-.3-1.7-.3-2.5-2.2,2.3-4.8,3.9-7.8,4.8-3,1-6.1,1.4-9.2,1.4s-4.7-.3-6.8-.9c-2.1-.6-3.9-1.6-5.5-2.8-1.6-1.2-2.8-2.8-3.7-4.7-.9-1.9-1.3-4.1-1.3-6.8s.5-5.3,1.5-7.1c1-1.9,2.3-3.4,3.9-4.5,1.6-1.1,3.5-1.9,5.5-2.5,2.1-.6,4.2-1,6.3-1.3,2.2-.3,4.2-.6,6.2-.8,2-.2,3.7-.5,5.2-.9,1.5-.4,2.8-1,3.7-1.7,.9-.8,1.4-1.9,1.4-3.3s-.2-2.7-.7-3.6c-.5-.9-1.1-1.6-2-2.1-.8-.5-1.7-.8-2.8-1-1.1-.2-2.2-.2-3.5-.2-2.7,0-4.8,.6-6.4,1.8-1.6,1.2-2.5,3.1-2.8,5.9h-13.9Zm32.2,10.3c-.6,.5-1.3,.9-2.2,1.2-.9,.3-1.8,.5-2.9,.7-1,.2-2.1,.4-3.2,.5-1.1,.1-2.2,.3-3.3,.5-1.1,.2-2.2,.5-3.1,.8-1,.3-1.9,.8-2.6,1.3-.8,.6-1.4,1.3-1.8,2.2-.4,.9-.7,1.9-.7,3.2s.2,2.4,.7,3.2c.5,.8,1.1,1.5,1.9,2,.8,.5,1.7,.8,2.8,1,1,.2,2.1,.3,3.2,.3,2.8,0,4.9-.5,6.4-1.4,1.5-.9,2.6-2,3.3-3.3,.7-1.3,1.2-2.6,1.3-3.9,.2-1.3,.2-2.4,.2-3.1v-5.2Z"></path><path class="cls-5" d="M339.1,49.1h13.9v26.4h.3c1.8-2.9,4-5,6.8-6.4,2.7-1.4,5.4-2.1,8-2.1,3.7,0,6.8,.5,9.2,1.5,2.4,1,4.3,2.4,5.6,4.2,1.4,1.8,2.4,4,2.9,6.6,.6,2.6,.8,5.5,.8,8.6v32.8h-13.9v-30.3c0-4.2-.7-7.3-2-9.4-1.4-2.1-3.7-3.1-6.9-3.1s-6.5,1.1-8.2,3.4c-1.7,2.3-2.5,6-2.5,11.1v28.2h-13.9V49.1Z"></path><path class="cls-5" d="M390.7,84c.2-3.3,1-6,2.4-8.1,1.4-2.1,3.3-3.9,5.5-5.2,2.2-1.3,4.7-2.2,7.5-2.8,2.7-.6,5.6-.8,8.4-.8s5.1,.2,7.8,.5c2.6,.4,5,1.1,7.2,2.1,2.2,1.1,3.9,2.5,5.3,4.4,1.4,1.9,2.1,4.3,2.1,7.4v26.4c0,2.3,.1,4.5,.4,6.6,.3,2.1,1.2,5.3,1.8,6.4h-14.1c-.3-.8-.9-3.2-1.1-4-.2-.8-.3-1.7-.3-2.5-2.2,2.3-4.9,3.9-7.9,4.8-3,1-6.1,1.4-9.2,1.4s-4.7-.3-6.8-.9c-2.1-.6-3.9-1.6-5.5-2.8-1.6-1.2-2.8-2.8-3.7-4.7-.9-1.9-1.3-4.1-1.3-6.8s.5-5.3,1.5-7.1c1-1.9,2.3-3.4,3.9-4.5,1.6-1.1,3.5-1.9,5.6-2.5,2.1-.6,4.2-1,6.3-1.3,2.2-.3,4.2-.6,6.2-.8,2-.2,3.7-.5,5.3-.9,1.5-.4,2.8-1,3.7-1.7,.9-.8,1.4-1.9,1.4-3.3s-.2-2.7-.7-3.6c-.5-.9-1.1-1.6-2-2.1-.8-.5-1.8-.8-2.8-1-1.1-.2-2.2-.2-3.5-.2-2.7,0-4.8,.6-6.4,1.8-1.6,1.2-2.6,3.1-2.8,5.9h-13.9Zm32.2,10.3c-.6,.5-1.3,.9-2.2,1.2-.9,.3-1.8,.5-2.9,.7-1,.2-2.1,.4-3.2,.5-1.1,.1-2.3,.3-3.3,.5-1.1,.2-2.2,.5-3.1,.8-1,.3-1.8,.8-2.6,1.3-.8,.6-1.4,1.3-1.8,2.2-.5,.9-.7,1.9-.7,3.2s.2,2.4,.7,3.2c.5,.8,1.1,1.5,1.9,2,.8,.5,1.7,.8,2.8,1,1,.2,2.1,.3,3.2,.3,2.8,0,4.9-.5,6.4-1.4,1.5-.9,2.6-2,3.4-3.3,.7-1.3,1.1-2.6,1.3-3.9,.2-1.3,.2-2.4,.2-3.1v-5.2Z"></path><path class="cls-5" d="M426.9,48.7h57.2v8.4h-23.8v63.7h-9.5V57.2h-23.8v-8.4Z"></path><path class="cls-5" d="M483.2,120.8h-8.8v-52.6h8.4v8.5c1.9-3.3,4.1-5.7,6.4-7.4,2.3-1.7,5-2.6,8.2-2.6s1.5,.1,2.2,.3v8.9h-3.2c-3.9,0-7.1,1.3-9.5,3.9-2.4,2.6-3.6,5.9-3.6,9.8v31.1Z"></path><path class="cls-5" d="M596.9,120.8h-8.6v-33.3c0-4.7-.8-8.1-2.3-10.3-1.6-2.1-4.5-3.2-8.6-3.2s-6.4,1.3-9.3,3.9c-2.9,2.6-4.3,7-4.3,13.2v29.4h-8.6v-52.8h8.1v7.2c1.7-2.3,3.8-4.3,6.2-6.1,2.4-1.8,5.6-2.6,9.5-2.6s9.1,1.3,12.6,4c3.5,2.7,5.3,7.3,5.3,13.9v36.6Z"></path><path class="cls-5" d="M634,82.4c0-2.3-.8-4.3-2.5-6-1.7-1.7-4.9-2.6-9.7-2.6s-4.6,.5-6.9,1.5c-2.2,1-3.3,2.9-3.3,5.8s.6,3.4,1.9,4.2c1.2,.8,3.7,1.7,7.5,2.7l8.6,2.1c5.2,1.3,8.9,3,11.1,5.1,2.2,2.1,3.3,4.9,3.3,8.4,0,5.2-1.9,9.3-5.7,12.4-3.8,3.1-8.7,4.6-14.6,4.6-8.8,0-14.7-1.8-17.7-5.5-2.9-3.7-4.4-7.8-4.4-12.4h8.3c0,2.8,1,5.3,2.8,7.4,1.9,2.1,5.5,3.1,10.8,3.1s6.3-.7,8.5-2c2.2-1.4,3.3-3.4,3.3-6.1s-.7-3.4-2.1-4.4c-1.4-1-4.1-2-8.1-3l-10-2.4c-3.8-.9-6.7-2.4-8.8-4.4-2.1-2-3.1-4.7-3.1-8.1,0-5.3,1.9-9.4,5.7-12.2,3.8-2.8,8.3-4.2,13.8-4.2s10.9,1.5,14.4,4.5c3.5,3,5.3,6.9,5.3,11.6h-8.3Z"></path><path class="cls-5" d="M548.8,120.8c-1.3-1.9-1.7-9-1.7-10.1v-30.2c0-5.7-2.1-9.5-6.4-11.4-4.2-1.9-8.5-2.9-12.7-2.9-6.7,0-11.9,1.4-15.6,4.1-3.7,2.7-5.6,7-5.6,13h8c.5-2.9,1.4-5.3,3-7.1,1.6-1.9,4.5-2.8,8.8-2.8,8.1,0,12,2.8,12,8.4s-.4,3.9-1.2,4.7c-.8,.8-1.9,1.2-3.3,1.4l-14.2,1.8c-6.2,.8-10.4,2.8-12.5,6-2.1,3.2-3.1,6.6-3.1,10.1s1.5,8,4.4,10.7c3,2.7,6.9,4.1,11.6,4.1s8.1-.8,11-2.4c2.9-1.6,5.4-3.6,7.6-5.9,0,2.4,.4,7.2,1.7,8.6m-2-19.6c0,3.4-1.6,6.2-4.8,8.5-3.2,2.3-7,3.4-11.2,3.4-6.3,0-9.4-2.9-9.4-8.8s1.1-4.8,3.2-5.9c2.1-1.1,5.3-1.9,9.3-2.5,4-.5,7-1.1,8.9-1.5,1.9-.5,3.3-1,4-1.6v8.3Z"></path></g></svg> 