<?xml version="1.0" encoding="UTF-8"?> <svg xmlns:xlink="http://www.w3.org/1999/xlink" xmlns="http://www.w3.org/2000/svg" class="u-svg-link" preserveAspectRatio="xMidYMin slice" viewBox="0 0 124.6 95.9" style="" width="124.6" height="95.9"><defs><svg class="u-svg-content" viewBox="0 0 124.6 95.9" id="svg-74f2"><defs><style> .cls-1 { fill: none; stroke: #1866a4; stroke-linecap: round; stroke-linejoin: round; stroke-width: 4.5px; } </style></defs><g id="Layer_1-2"><g><path class="cls-1" d="M17.9,75.4c-1.1-1.8-3.3-2.6-5.2-2.6-5.8,0-10.4,4.7-10.4,10.4V12.7C2.3,6.9,6.9,2.3,12.7,2.3s4.3,.4,5.2,2.6V75.4Z" stroke="#1866A4" fill="none" stroke-width="4px"></path><line class="cls-1" x1="106.7" y1="15.3" x2="17.9" y2="15.3" stroke="#1866A4" fill="none" stroke-width="4px"></line><path class="cls-1" d="M122.3,83.2c0,5.8-4.7,10.4-10.4,10.4H12.7c-5.8,0-10.4-4.7-10.4-10.4" stroke="#1866A4" fill="none" stroke-width="4px"></path><path class="cls-1" d="M106.7,75.4c1.1-1.8,3.3-2.6,5.2-2.6,5.8,0,10.4,4.7,10.4,10.4V12.7c0-5.8-4.7-10.4-10.4-10.4s-4.3,.4-5.2,2.6V75.4Z" stroke="#1866A4" fill="none" stroke-width="4px"></path><polyline class="cls-1" points="88.4 78 88.4 44 75.4 44 75.4 78" stroke="#1866A4" fill="none" stroke-width="4px"></polyline><polyline class="cls-1" points="49.3 78 49.3 51.9 62.3 51.9 62.3 78" stroke="#1866A4" fill="none" stroke-width="4px"></polyline><polyline class="cls-1" points="62.3 78 62.3 31 75.4 31 75.4 78" stroke="#1866A4" fill="none" stroke-width="4px"></polyline><polyline class="cls-1" points="49.3 78 49.3 64.9 36.2 64.9 36.2 78" stroke="#1866A4" fill="none" stroke-width="4px"></polyline><line class="cls-1" x1="28.4" y1="78" x2="96.2" y2="78" stroke="#1866A4" fill="none" stroke-width="4px"></line></g></g></svg></defs><use xlink:href="#svg-74f2" fill="#111111"></use></svg> 