<?xml version="1.0" encoding="UTF-8"?> <svg xmlns="http://www.w3.org/2000/svg" xmlns:xlink="http://www.w3.org/1999/xlink" version="1.1" id="Layer_2_00000101811453832488983700000010790584248583523971_" x="0px" y="0px" viewBox="0 0 58.9 89.4" style="enable-background:new 0 0 58.9 89.4;" xml:space="preserve"> <style type="text/css"> .st0{fill:none;stroke:url(#SVGID_1_);stroke-linecap:round;stroke-miterlimit:10;} .st1{opacity:0.8;fill:url(#SVGID_00000154398519895795007910000007715281483714130568_);enable-background:new ;} .st2{enable-background:new ;} .st3{fill:#231F20;} </style> <g id="Layer_2-2"> <g> <linearGradient id="SVGID_1_" gradientUnits="userSpaceOnUse" x1="29.5" y1="36.7511" x2="30.5" y2="36.7511" gradientTransform="matrix(1 0 0 -1 0 90.5511)"> <stop offset="0" style="stop-color:#45C8FF"></stop> <stop offset="0" style="stop-color:#4ECAFF"></stop> <stop offset="0.2" style="stop-color:#84DAFF"></stop> <stop offset="0.4" style="stop-color:#B0E7FF"></stop> <stop offset="0.6" style="stop-color:#D2F1FF"></stop> <stop offset="0.7" style="stop-color:#EBF9FF"></stop> <stop offset="0.9" style="stop-color:#F9FDFF"></stop> <stop offset="1" style="stop-color:#FFFFFF"></stop> </linearGradient> <line class="st0" x1="30" y1="18.7" x2="30" y2="88.9"></line> <linearGradient id="SVGID_00000131334489661733211810000016327383533098399642_" gradientUnits="userSpaceOnUse" x1="4.8" y1="81.2011" x2="54.1" y2="81.2011" gradientTransform="matrix(1 0 0 -1 0 90.5511)"> <stop offset="0" style="stop-color:#45C8FF"></stop> <stop offset="0" style="stop-color:#4ECAFF"></stop> <stop offset="0.2" style="stop-color:#84DAFF"></stop> <stop offset="0.4" style="stop-color:#B0E7FF"></stop> <stop offset="0.6" style="stop-color:#D2F1FF"></stop> <stop offset="0.7" style="stop-color:#EBF9FF"></stop> <stop offset="0.9" style="stop-color:#F9FDFF"></stop> <stop offset="1" style="stop-color:#FFFFFF"></stop> </linearGradient> <path style="opacity:0.8;fill:url(#SVGID_00000131334489661733211810000016327383533098399642_);enable-background:new ;" d=" M47,0H12c-1.5,0-2.9,0.8-3.7,2.1L5.4,7.2c-0.8,1.3-0.8,2.9,0,4.3l2.9,5.1c0.8,1.3,2.2,2.1,3.7,2.1h35c1.5,0,2.9-0.8,3.7-2.1 l2.9-5.1c0.8-1.3,0.8-2.9,0-4.3l-2.9-5.1C49.9,0.8,48.5,0,47,0z"></path> <g class="st2"> <path class="st3" d="M18.8,9.1c-0.2,0.3-0.5,0.5-0.9,0.7c-0.4,0.1-0.8,0.2-1.3,0.2h-1.5c-0.1,0-0.1,0-0.1,0.1v2.5 c0,0.1-0.1,0.2-0.2,0.2h-0.8c-0.1,0-0.1,0-0.1,0c0,0,0-0.1,0-0.1V6.1c0-0.1,0-0.1,0.1-0.1h2.4c0.5,0,0.9,0.1,1.3,0.2 s0.7,0.4,0.9,0.7C19,7.1,19.1,7.5,19.1,8C19.1,8.4,19,8.8,18.8,9.1z M17.8,7.3c-0.1-0.2-0.3-0.3-0.5-0.4 c-0.2-0.1-0.5-0.1-0.8-0.1h-1.3c-0.1,0-0.1,0-0.1,0.1V9c0,0.1,0,0.1,0.1,0.1h1.4c0.4,0,0.8-0.1,1-0.3S18,8.3,18,7.9 C18,7.7,17.9,7.4,17.8,7.3z"></path> </g> <g class="st2"> <path class="st3" d="M22.1,12.6c-0.3,0.1-0.5,0.2-0.9,0.2c-0.5,0-0.8-0.1-1.1-0.4c-0.3-0.2-0.4-0.6-0.4-1c0-0.3,0.1-0.6,0.3-0.9 c0.2-0.2,0.5-0.4,0.8-0.6c0.4-0.1,0.8-0.2,1.3-0.2l0.6,0c0,0,0.1,0,0.1,0s0-0.1,0-0.1V9.4c0-0.3-0.1-0.5-0.3-0.7 c-0.2-0.2-0.4-0.3-0.7-0.3c-0.2,0-0.5,0.1-0.7,0.2c-0.2,0.1-0.4,0.3-0.5,0.5c0,0,0,0.1-0.1,0.1c0,0-0.1,0-0.1,0L19.9,9 c0,0,0,0-0.1,0c0,0,0-0.1,0-0.1c0.2-0.3,0.4-0.6,0.8-0.8s0.8-0.3,1.3-0.3c0.4,0,0.8,0.1,1.1,0.2c0.3,0.1,0.5,0.3,0.6,0.5 c0.1,0.2,0.2,0.5,0.2,0.8v3.2c0,0.1,0,0.1,0,0.1c0,0-0.1,0-0.1,0h-0.6c0,0-0.1,0-0.1,0c0,0,0-0.1,0-0.1l0-0.3 c0-0.1-0.1-0.1-0.2,0C22.5,12.4,22.3,12.5,22.1,12.6z M22.8,10.3l-0.5,0c-0.2,0-0.5,0-0.7,0.1s-0.4,0.1-0.5,0.2s-0.3,0.2-0.3,0.3 s-0.1,0.3-0.1,0.4c0,0.2,0.1,0.4,0.3,0.6s0.4,0.2,0.7,0.2c0.2,0,0.4,0,0.5-0.1c0.2-0.1,0.3-0.1,0.4-0.2c0.1-0.1,0.2-0.2,0.3-0.3 s0.1-0.2,0.1-0.3v-0.7C22.9,10.3,22.9,10.3,22.8,10.3z"></path> <path class="st3" d="M28.4,12.7c0,0,0-0.1,0-0.1v-0.3c0,0,0-0.1,0-0.1c0,0-0.1,0-0.1,0c-0.1,0.1-0.2,0.2-0.3,0.3 c-0.1,0.1-0.3,0.2-0.5,0.3c-0.2,0.1-0.4,0.1-0.6,0.1c-0.4,0-0.7-0.1-1-0.3c-0.3-0.2-0.5-0.5-0.7-0.8c-0.2-0.4-0.3-0.8-0.3-1.4 c0-0.5,0.1-1,0.3-1.3c0.2-0.4,0.4-0.7,0.7-0.9c0.3-0.2,0.7-0.3,1.1-0.3c0.3,0,0.5,0,0.7,0.1C27.8,8,28,8.1,28.2,8.3 c0,0,0.1,0.1,0.1,0c0,0,0,0,0-0.1V6.1c0-0.1,0-0.1,0.1-0.1h0.7c0.1,0,0.1,0,0.1,0.1v6.5c0,0.1,0,0.1,0,0.1s-0.1,0-0.1,0h-0.6 C28.4,12.7,28.4,12.7,28.4,12.7z M27.8,8.6c-0.2-0.1-0.4-0.1-0.6-0.1c-0.3,0-0.5,0.1-0.7,0.2S26.1,9,26,9.3 c-0.1,0.3-0.2,0.6-0.2,1c0,0.4,0.1,0.8,0.2,1c0.1,0.3,0.3,0.5,0.5,0.6c0.2,0.1,0.4,0.2,0.7,0.2c0.2,0,0.4-0.1,0.6-0.2 s0.3-0.2,0.4-0.4c0.1-0.2,0.2-0.3,0.2-0.5V9C28.1,8.8,27.9,8.7,27.8,8.6z"></path> <path class="st3" d="M32.6,12.6c-0.3,0.1-0.5,0.2-0.9,0.2c-0.5,0-0.8-0.1-1.1-0.4c-0.3-0.2-0.4-0.6-0.4-1c0-0.3,0.1-0.6,0.3-0.9 c0.2-0.2,0.5-0.4,0.8-0.6c0.4-0.1,0.8-0.2,1.3-0.2l0.6,0c0,0,0.1,0,0.1,0s0-0.1,0-0.1V9.4c0-0.3-0.1-0.5-0.3-0.7 c-0.2-0.2-0.4-0.3-0.7-0.3c-0.2,0-0.5,0.1-0.7,0.2c-0.2,0.1-0.4,0.3-0.5,0.5c0,0,0,0.1-0.1,0.1c0,0-0.1,0-0.1,0L30.4,9 c0,0,0,0-0.1,0c0,0,0-0.1,0-0.1c0.2-0.3,0.4-0.6,0.8-0.8s0.8-0.3,1.3-0.3c0.4,0,0.8,0.1,1.1,0.2c0.3,0.1,0.5,0.3,0.6,0.5 s0.2,0.5,0.2,0.8v3.2c0,0.1,0,0.1,0,0.1c0,0-0.1,0-0.1,0h-0.6c0,0-0.1,0-0.1,0c0,0,0-0.1,0-0.1l0-0.3c0-0.1-0.1-0.1-0.2,0 C33,12.4,32.8,12.5,32.6,12.6z M33.3,10.3l-0.5,0c-0.2,0-0.5,0-0.7,0.1s-0.4,0.1-0.5,0.2s-0.3,0.2-0.3,0.3s-0.1,0.3-0.1,0.4 c0,0.2,0.1,0.4,0.3,0.6s0.4,0.2,0.7,0.2c0.2,0,0.4,0,0.5-0.1s0.3-0.1,0.4-0.2c0.1-0.1,0.2-0.2,0.3-0.3c0.1-0.1,0.1-0.2,0.1-0.3 v-0.7C33.4,10.3,33.4,10.3,33.3,10.3z"></path> <path class="st3" d="M35.6,12.6V8c0-0.1,0-0.1,0.1-0.1h0.7c0.1,0,0.1,0,0.1,0.1v0.5c0,0,0,0,0,0.1c0,0,0,0,0.1,0 c0.2-0.2,0.4-0.3,0.5-0.4s0.3-0.2,0.5-0.3s0.4-0.1,0.6-0.1c0.5,0,0.8,0.1,1.1,0.4c0.3,0.3,0.4,0.6,0.4,1v3.4 c0,0.1-0.1,0.2-0.2,0.2h-0.7c0,0-0.1,0-0.1,0c0,0,0-0.1,0-0.1V9.4c0-0.3-0.1-0.5-0.2-0.6c-0.1-0.2-0.4-0.2-0.6-0.2 c-0.2,0-0.3,0-0.5,0.1S37.1,8.7,37,8.8c-0.1,0.1-0.3,0.2-0.5,0.4v3.3c0,0.1-0.1,0.2-0.2,0.2h-0.6C35.6,12.7,35.6,12.7,35.6,12.6z "></path> <path class="st3" d="M45.6,7.8c0,0,0,0.1,0,0.1v0.4c0,0.1,0,0.1,0,0.1s-0.1,0-0.1,0c-0.1,0-0.2,0-0.3,0c-0.1,0-0.1,0-0.2,0 c-0.2,0-0.2,0.1-0.2,0.2c0,0.1,0.1,0.1,0.1,0.2s0,0.2,0,0.3c0,0.3-0.1,0.5-0.2,0.7s-0.4,0.4-0.7,0.5c-0.3,0.1-0.7,0.2-1.1,0.2 c-0.3,0-0.5,0-0.7,0.1s-0.3,0.1-0.4,0.1c-0.1,0.1-0.1,0.1-0.1,0.2c0,0.1,0.1,0.2,0.2,0.2c0.1,0,0.3,0.1,0.6,0.1l1.2,0.1 c0.6,0,1,0.2,1.2,0.4s0.4,0.5,0.4,0.9c0,0.5-0.2,0.8-0.6,1.1c-0.4,0.3-1,0.4-1.8,0.4c-0.8,0-1.4-0.1-1.8-0.3 c-0.4-0.2-0.6-0.5-0.6-0.9c0-0.2,0.1-0.4,0.2-0.6c0.2-0.2,0.4-0.3,0.6-0.4c0.1,0,0.1-0.1,0-0.1c-0.1-0.1-0.2-0.1-0.3-0.2 c-0.1-0.1-0.1-0.2-0.1-0.3c0-0.1,0-0.2,0.1-0.3c0.1-0.1,0.2-0.2,0.3-0.3c0.1-0.1,0.3-0.1,0.4-0.2c0,0,0,0,0.1,0s0,0-0.1-0.1 c-0.3-0.1-0.5-0.3-0.6-0.5s-0.2-0.4-0.2-0.7c0-0.5,0.2-0.8,0.5-1.1c0.4-0.3,0.9-0.4,1.6-0.4c0.3,0,0.6,0,0.8,0.1 C44,8,44.2,8.1,44.3,8.2c0,0,0.1,0,0.1,0s0.1,0,0.1-0.1c0.1-0.1,0.2-0.1,0.3-0.2c0.1-0.1,0.2-0.1,0.3-0.2c0.1,0,0.2-0.1,0.3-0.1 C45.5,7.8,45.5,7.8,45.6,7.8z M42.1,12.2c-0.1,0-0.2,0-0.4,0.1c-0.1,0.1-0.2,0.1-0.3,0.3c-0.1,0.1-0.1,0.2-0.1,0.4 c0,0.2,0.1,0.3,0.2,0.4s0.3,0.2,0.6,0.3c0.3,0.1,0.6,0.1,1,0.1c0.5,0,0.8-0.1,1.1-0.2c0.2-0.1,0.4-0.3,0.4-0.6 c0-0.2-0.1-0.3-0.2-0.4c-0.1-0.1-0.4-0.2-0.7-0.2L42.1,12.2z M43.7,10C43.9,9.8,44,9.6,44,9.3c0-0.3-0.1-0.5-0.3-0.7 c-0.2-0.2-0.5-0.3-0.9-0.3c-0.4,0-0.7,0.1-0.9,0.3c-0.2,0.2-0.3,0.4-0.3,0.7c0,0.3,0.1,0.5,0.3,0.7c0.2,0.2,0.5,0.3,0.9,0.3 C43.3,10.3,43.5,10.2,43.7,10z"></path> </g> </g> </g> </svg> 