<?xml version="1.0" encoding="UTF-8"?> <svg xmlns="http://www.w3.org/2000/svg" xmlns:xlink="http://www.w3.org/1999/xlink" version="1.1" id="Layer_2_00000043444943653545661220000000266710908981718963_" x="0px" y="0px" viewBox="0 0 41.2 67.4" style="enable-background:new 0 0 41.2 67.4;" xml:space="preserve"> <style type="text/css"> .st0{fill:none;stroke:url(#SVGID_1_);stroke-linecap:round;stroke-miterlimit:10;} .st1{opacity:0.8;fill:url(#SVGID_00000106846124501810609990000014132511143793415597_);enable-background:new ;} .st2{enable-background:new ;} .st3{fill:#231F20;} </style> <g id="Layer_2-2"> <g> <linearGradient id="SVGID_1_" gradientUnits="userSpaceOnUse" x1="20.1" y1="48.7511" x2="21.1" y2="48.7511" gradientTransform="matrix(1 0 0 -1 0 68.5511)"> <stop offset="0" style="stop-color:#45C8FF"></stop> <stop offset="0" style="stop-color:#4ECAFF"></stop> <stop offset="0.2" style="stop-color:#84DAFF"></stop> <stop offset="0.4" style="stop-color:#B0E7FF"></stop> <stop offset="0.6" style="stop-color:#D2F1FF"></stop> <stop offset="0.7" style="stop-color:#EBF9FF"></stop> <stop offset="0.9" style="stop-color:#F9FDFF"></stop> <stop offset="1" style="stop-color:#FFFFFF"></stop> </linearGradient> <line class="st0" x1="20.6" y1="0.5" x2="20.6" y2="39.1"></line> <linearGradient id="SVGID_00000082347982992969845380000012963108028112998545_" gradientUnits="userSpaceOnUse" x1="1.490116e-08" y1="15.3512" x2="41.2" y2="15.3512" gradientTransform="matrix(1 0 0 -1 0 68.5511)"> <stop offset="0" style="stop-color:#45C8FF"></stop> <stop offset="0" style="stop-color:#4ECAFF"></stop> <stop offset="0.2" style="stop-color:#84DAFF"></stop> <stop offset="0.4" style="stop-color:#B0E7FF"></stop> <stop offset="0.6" style="stop-color:#D2F1FF"></stop> <stop offset="0.7" style="stop-color:#EBF9FF"></stop> <stop offset="0.9" style="stop-color:#F9FDFF"></stop> <stop offset="1" style="stop-color:#FFFFFF"></stop> </linearGradient> <path style="opacity:0.8;fill:url(#SVGID_00000082347982992969845380000012963108028112998545_);enable-background:new ;" d=" M31.2,39H10c-1.5,0-2.9,0.8-3.7,2.1l-5.7,10c-0.8,1.3-0.8,2.9,0,4.3l5.7,9.9c0.8,1.3,2.2,2.1,3.7,2.1h21.2c1.5,0,2.9-0.8,3.7-2.1 l5.7-9.9c0.8-1.3,0.8-2.9,0-4.3l-5.7-9.9C34.1,39.9,32.7,39.1,31.2,39L31.2,39z"></path> <g class="st2"> <path class="st3" d="M12.8,51.4c-0.3,0.3-0.7,0.4-1.2,0.4c-0.2,0-0.4,0-0.6-0.1c-0.2,0-0.3-0.1-0.4-0.1c0,0-0.1,0-0.1-0.1 c0,0,0-0.1,0-0.1l0.1-0.6c0-0.1,0-0.1,0.1-0.1c0.1,0,0.2,0.1,0.3,0.1c0.1,0,0.2,0.1,0.4,0.1c0.3,0,0.5-0.1,0.6-0.2 s0.2-0.4,0.2-0.8v-4.8c0-0.1,0-0.1,0.1-0.1h0.9c0.1,0,0.1,0,0.1,0.1v5C13.2,50.7,13.1,51.1,12.8,51.4z"></path> </g> <g class="st2"> <path class="st3" d="M16.7,51.6c-0.3,0.1-0.5,0.2-0.9,0.2c-0.5,0-0.8-0.1-1.1-0.4c-0.3-0.2-0.4-0.6-0.4-1c0-0.3,0.1-0.6,0.3-0.9 c0.2-0.2,0.5-0.4,0.8-0.6c0.4-0.1,0.8-0.2,1.3-0.2l0.6,0c0,0,0.1,0,0.1,0s0-0.1,0-0.1v-0.2c0-0.3-0.1-0.5-0.3-0.7 c-0.2-0.2-0.4-0.3-0.7-0.3c-0.2,0-0.5,0.1-0.7,0.2c-0.2,0.1-0.4,0.3-0.5,0.5c0,0,0,0.1-0.1,0.1c0,0-0.1,0-0.1,0L14.5,48 c0,0,0,0-0.1,0c0,0,0-0.1,0-0.1c0.2-0.3,0.4-0.6,0.8-0.8s0.8-0.3,1.3-0.3c0.4,0,0.8,0.1,1.1,0.2c0.3,0.1,0.5,0.3,0.6,0.5 c0.1,0.2,0.2,0.5,0.2,0.8v3.2c0,0.1,0,0.1,0,0.1c0,0-0.1,0-0.1,0h-0.6c0,0-0.1,0-0.1,0c0,0,0-0.1,0-0.1l0-0.3 c0-0.1-0.1-0.1-0.2,0C17.1,51.4,16.9,51.5,16.7,51.6z M17.4,49.3l-0.5,0c-0.2,0-0.5,0-0.7,0.1s-0.4,0.1-0.5,0.2s-0.3,0.2-0.3,0.3 s-0.1,0.3-0.1,0.4c0,0.2,0.1,0.4,0.3,0.6s0.4,0.2,0.7,0.2c0.2,0,0.4,0,0.5-0.1c0.2-0.1,0.3-0.1,0.4-0.2c0.1-0.1,0.2-0.2,0.3-0.3 s0.1-0.2,0.1-0.3v-0.7C17.5,49.3,17.5,49.3,17.4,49.3z"></path> <path class="st3" d="M25.9,46.9c0,0,0,0.1,0,0.1l-1.4,4.5c0,0,0,0.1-0.1,0.1s-0.1,0-0.1,0h-0.5c-0.1,0-0.2,0-0.2-0.1l-1-3.1 c0-0.1,0-0.1-0.1-0.1s0,0,0,0.1l-1,3.1c0,0,0,0.1-0.1,0.1s-0.1,0-0.1,0h-0.6c-0.1,0-0.2,0-0.2-0.1L19.2,47c0,0,0-0.1,0-0.1 s0.1,0,0.1,0H20c0,0,0.1,0,0.1,0c0,0,0.1,0,0.1,0.1l1,3.2c0,0.1,0,0.1,0.1,0.1c0,0,0.1,0,0.1-0.1l1-3.2c0,0,0-0.1,0.1-0.1 c0,0,0.1,0,0.1,0h0.5c0,0,0.1,0,0.1,0s0,0,0.1,0.1l1,3.2c0,0.1,0,0.1,0.1,0.1c0,0,0,0,0.1-0.1l1-3.2c0,0,0-0.1,0.1-0.1 s0.1,0,0.1,0h0.5C25.9,46.9,25.9,46.9,25.9,46.9z"></path> </g> <g class="st2"> <path class="st3" d="M28.7,51.6c-0.3,0.1-0.5,0.2-0.9,0.2c-0.5,0-0.8-0.1-1.1-0.4c-0.3-0.2-0.4-0.6-0.4-1c0-0.3,0.1-0.6,0.3-0.9 s0.5-0.4,0.8-0.6c0.4-0.1,0.8-0.2,1.3-0.2l0.6,0c0,0,0.1,0,0.1,0c0,0,0-0.1,0-0.1v-0.2c0-0.3-0.1-0.5-0.3-0.7 c-0.2-0.2-0.4-0.3-0.7-0.3c-0.2,0-0.5,0.1-0.7,0.2c-0.2,0.1-0.4,0.3-0.5,0.5c0,0,0,0.1-0.1,0.1c0,0-0.1,0-0.1,0L26.5,48 c0,0,0,0-0.1,0c0,0,0-0.1,0-0.1c0.2-0.3,0.4-0.6,0.8-0.8c0.3-0.2,0.8-0.3,1.3-0.3c0.4,0,0.8,0.1,1.1,0.2c0.3,0.1,0.5,0.3,0.6,0.5 c0.1,0.2,0.2,0.5,0.2,0.8v3.2c0,0.1,0,0.1,0,0.1c0,0-0.1,0-0.1,0h-0.6c0,0-0.1,0-0.1,0s0-0.1,0-0.1l0-0.3c0-0.1-0.1-0.1-0.2,0 C29.1,51.4,28.9,51.5,28.7,51.6z M29.4,49.3l-0.5,0c-0.2,0-0.5,0-0.7,0.1c-0.2,0.1-0.4,0.1-0.5,0.2s-0.3,0.2-0.3,0.3 s-0.1,0.3-0.1,0.4c0,0.2,0.1,0.4,0.3,0.6c0.2,0.1,0.4,0.2,0.7,0.2c0.2,0,0.4,0,0.5-0.1c0.2-0.1,0.3-0.1,0.4-0.2 c0.1-0.1,0.2-0.2,0.3-0.3s0.1-0.2,0.1-0.3v-0.7C29.5,49.3,29.5,49.3,29.4,49.3z"></path> </g> <g class="st2"> <path class="st3" d="M8.3,55.2C8.3,55.1,8.3,55.1,8.3,55.2C8.3,55.1,8.3,55,8.4,55h5c0,0,0.1,0,0.1,0c0,0,0,0.1,0,0.1v0.6 c0,0.1,0,0.1-0.1,0.1h-1.8c-0.1,0-0.1,0-0.1,0.1v5.7c0,0.1,0,0.1-0.1,0.1h-0.9c-0.1,0-0.1,0-0.1-0.1V56c0-0.1,0-0.1-0.1-0.1H8.4 c-0.1,0-0.1,0-0.1-0.1V55.2z"></path> <path class="st3" d="M15.5,56c0,0.1-0.1,0.2-0.2,0.2h-0.7c-0.1,0-0.1,0-0.1,0c0,0,0-0.1,0-0.1v-0.8c0-0.1,0-0.2,0.1-0.2h0.8 c0.1,0,0.1,0,0.1,0.1V56z M15.5,61.6c0,0.1,0,0.1,0,0.1s-0.1,0-0.1,0h-0.6c-0.1,0-0.1,0-0.1,0c0,0,0-0.1,0-0.1v-4.5 c0-0.1,0-0.1,0.1-0.1h0.7c0.1,0,0.1,0,0.1,0.1V61.6z"></path> <path class="st3" d="M16.8,61.7v-4.5c0-0.1,0-0.1,0.1-0.1h0.7c0.1,0,0.1,0,0.1,0.1v0.5c0,0,0,0,0,0.1c0,0,0,0,0.1,0 c0.2-0.2,0.4-0.3,0.5-0.4c0.2-0.1,0.3-0.2,0.5-0.3s0.4-0.1,0.6-0.1c0.3,0,0.6,0.1,0.8,0.2s0.4,0.4,0.4,0.6c0,0,0,0,0.1,0 c0,0,0,0,0.1,0c0.2-0.2,0.4-0.3,0.5-0.4c0.2-0.1,0.4-0.2,0.5-0.3c0.2-0.1,0.4-0.1,0.6-0.1c0.4,0,0.8,0.1,1,0.4 c0.2,0.3,0.4,0.6,0.4,1v3.3c0,0.1-0.1,0.2-0.2,0.2H23c0,0-0.1,0-0.1,0c0,0,0-0.1,0-0.1v-3.2c0-0.3-0.1-0.5-0.2-0.6 c-0.1-0.2-0.3-0.2-0.6-0.2c-0.2,0-0.3,0-0.5,0.1c-0.1,0.1-0.3,0.1-0.4,0.2c-0.1,0.1-0.2,0.2-0.3,0.3c0,0-0.1,0.1-0.1,0.1 c0,0,0,0.1,0,0.1v3.2c0,0.1-0.1,0.2-0.2,0.2h-0.7c0,0-0.1,0-0.1,0c0,0,0-0.1,0-0.1v-3.2c0-0.3-0.1-0.5-0.2-0.6 c-0.1-0.2-0.3-0.2-0.6-0.2c-0.2,0-0.4,0.1-0.6,0.2c-0.2,0.1-0.4,0.3-0.7,0.5v3.3c0,0.1-0.1,0.2-0.2,0.2h-0.6 C16.8,61.8,16.8,61.8,16.8,61.7z"></path> <path class="st3" d="M27.5,61c0.2-0.1,0.4-0.3,0.6-0.5v-3.3c0-0.1,0.1-0.2,0.2-0.2h0.7c0.1,0,0.1,0,0.1,0.1l0,4.6 c0,0.1,0,0.1-0.1,0.1h-0.7c-0.1,0-0.1,0-0.1-0.1v-0.5c0,0,0,0,0-0.1c0,0,0,0-0.1,0c-0.3,0.3-0.6,0.5-0.8,0.6 c-0.3,0.1-0.5,0.2-0.8,0.2c-0.3,0-0.5-0.1-0.7-0.2c-0.2-0.1-0.4-0.3-0.5-0.5S25,60.8,25,60.5v-3.3C25,57,25,57,25.1,57h0.7 c0.1,0,0.1,0,0.1,0.1v3.2c0,0.3,0.1,0.5,0.2,0.6s0.4,0.2,0.6,0.2C27,61.2,27.3,61.1,27.5,61z"></path> <path class="st3" d="M30.4,61.8c0,0,0-0.1,0-0.1v-4.5c0-0.1,0-0.1,0.1-0.1h0.7c0.1,0,0.1,0,0.1,0.1v0.6c0,0,0,0.1,0,0.1 c0,0,0,0,0.1,0c0.2-0.2,0.3-0.3,0.5-0.5c0.2-0.1,0.3-0.2,0.5-0.3c0.2-0.1,0.3-0.1,0.5-0.1c0.2,0,0.3,0,0.3,0.1v0.7 c0,0.1,0,0.1-0.1,0.1c-0.1,0-0.2,0-0.2,0c-0.1,0-0.2,0-0.3,0c-0.1,0-0.3,0-0.4,0.1s-0.3,0.1-0.4,0.2c-0.1,0.1-0.2,0.2-0.3,0.3 c-0.1,0.1-0.1,0.2-0.1,0.4v2.9c0,0.1-0.1,0.2-0.2,0.2h-0.6C30.4,61.8,30.4,61.8,30.4,61.8z"></path> </g> </g> </g> </svg> 