<?xml version="1.0" encoding="UTF-8"?> <svg xmlns="http://www.w3.org/2000/svg" xmlns:xlink="http://www.w3.org/1999/xlink" version="1.1" id="Layer_2_00000065785707778595079390000003900831267269233052_" x="0px" y="0px" viewBox="0 0 92.2 89.4" style="enable-background:new 0 0 92.2 89.4;" xml:space="preserve"> <style type="text/css"> .st0{fill:none;stroke:url(#SVGID_1_);stroke-linecap:round;stroke-miterlimit:10;} .st1{opacity:0.8;fill:url(#SVGID_00000116945417536955773730000016920824398478361485_);enable-background:new ;} .st2{enable-background:new ;} .st3{fill:#231F20;} </style> <g id="Layer_2-2"> <g> <linearGradient id="SVGID_1_" gradientUnits="userSpaceOnUse" x1="45.6" y1="36.7511" x2="46.6" y2="36.7511" gradientTransform="matrix(1 0 0 -1 0 90.5511)"> <stop offset="0" style="stop-color:#45C8FF"></stop> <stop offset="0" style="stop-color:#4ECAFF"></stop> <stop offset="0.2" style="stop-color:#84DAFF"></stop> <stop offset="0.4" style="stop-color:#B0E7FF"></stop> <stop offset="0.6" style="stop-color:#D2F1FF"></stop> <stop offset="0.7" style="stop-color:#EBF9FF"></stop> <stop offset="0.9" style="stop-color:#F9FDFF"></stop> <stop offset="1" style="stop-color:#FFFFFF"></stop> </linearGradient> <line class="st0" x1="46.1" y1="18.7" x2="46.1" y2="88.9"></line> <linearGradient id="SVGID_00000005962092650930708370000013857880147762855317_" gradientUnits="userSpaceOnUse" x1="13.9" y1="81.2011" x2="78.3" y2="81.2011" gradientTransform="matrix(1 0 0 -1 0 90.5511)"> <stop offset="0" style="stop-color:#45C8FF"></stop> <stop offset="0" style="stop-color:#4ECAFF"></stop> <stop offset="0.2" style="stop-color:#84DAFF"></stop> <stop offset="0.4" style="stop-color:#B0E7FF"></stop> <stop offset="0.6" style="stop-color:#D2F1FF"></stop> <stop offset="0.7" style="stop-color:#EBF9FF"></stop> <stop offset="0.9" style="stop-color:#F9FDFF"></stop> <stop offset="1" style="stop-color:#FFFFFF"></stop> </linearGradient> <path style="opacity:0.8;fill:url(#SVGID_00000005962092650930708370000013857880147762855317_);enable-background:new ;" d=" M71.1,0H21c-1.5,0-2.9,0.8-3.7,2.1l-2.9,5.1c-0.8,1.3-0.8,2.9,0,4.3l2.9,5.1c0.8,1.3,2.2,2.1,3.7,2.1h50.1c1.5,0,2.9-0.8,3.7-2.1 l2.9-5.1c0.8-1.3,0.8-2.9,0-4.3l-2.9-5.1C74,0.8,72.6,0,71.1,0z"></path> <g class="st2"> <path class="st3" d="M27.5,8.8c-0.2,0.3-0.5,0.5-0.9,0.7c-0.4,0.1-0.8,0.2-1.3,0.2h-1.5c-0.1,0-0.1,0-0.1,0.1v2.5 c0,0.1-0.1,0.2-0.2,0.2h-0.8c-0.1,0-0.1,0-0.1,0c0,0,0-0.1,0-0.1V5.8c0-0.1,0-0.1,0.1-0.1h2.4c0.5,0,0.9,0.1,1.3,0.2 s0.7,0.4,0.9,0.7c0.2,0.3,0.3,0.7,0.3,1.1C27.8,8.1,27.7,8.5,27.5,8.8z M26.5,7c-0.1-0.2-0.3-0.3-0.5-0.4 c-0.2-0.1-0.5-0.1-0.8-0.1h-1.3c-0.1,0-0.1,0-0.1,0.1v2.1c0,0.1,0,0.1,0.1,0.1h1.4c0.4,0,0.8-0.1,1-0.3s0.4-0.5,0.4-0.9 C26.7,7.4,26.6,7.1,26.5,7z"></path> </g> <g class="st2"> <path class="st3" d="M30.8,12.3c-0.3,0.1-0.5,0.2-0.9,0.2c-0.5,0-0.8-0.1-1.1-0.4c-0.3-0.2-0.4-0.6-0.4-1c0-0.3,0.1-0.6,0.3-0.9 c0.2-0.2,0.5-0.4,0.8-0.6c0.4-0.1,0.8-0.2,1.3-0.2l0.6,0c0,0,0.1,0,0.1,0s0-0.1,0-0.1V9.1c0-0.3-0.1-0.5-0.3-0.7 c-0.2-0.2-0.4-0.3-0.7-0.3c-0.2,0-0.5,0.1-0.7,0.2c-0.2,0.1-0.4,0.3-0.5,0.5c0,0,0,0.1-0.1,0.1c0,0-0.1,0-0.1,0l-0.6-0.2 c0,0,0,0-0.1,0c0,0,0-0.1,0-0.1c0.2-0.3,0.4-0.6,0.8-0.8s0.8-0.3,1.3-0.3c0.4,0,0.8,0.1,1.1,0.2C32,7.8,32.2,8,32.3,8.2 c0.1,0.2,0.2,0.5,0.2,0.8v3.2c0,0.1,0,0.1,0,0.1c0,0-0.1,0-0.1,0h-0.6c0,0-0.1,0-0.1,0c0,0,0-0.1,0-0.1l0-0.3 c0-0.1-0.1-0.1-0.2,0C31.2,12.1,31,12.2,30.8,12.3z M31.5,10L31,10c-0.2,0-0.5,0-0.7,0.1s-0.4,0.1-0.5,0.2s-0.3,0.2-0.3,0.3 s-0.1,0.3-0.1,0.4c0,0.2,0.1,0.4,0.3,0.6s0.4,0.2,0.7,0.2c0.2,0,0.4,0,0.5-0.1c0.2-0.1,0.3-0.1,0.4-0.2c0.1-0.1,0.2-0.2,0.3-0.3 s0.1-0.2,0.1-0.3v-0.7C31.6,10,31.6,10,31.5,10z"></path> <path class="st3" d="M34.7,12.2c0,0.1,0,0.1,0,0.1s-0.1,0-0.2,0h-0.6c-0.1,0-0.2,0-0.2-0.1l0-6.5c0-0.1,0-0.1,0.1-0.1h0.7 c0.1,0,0.1,0,0.1,0.1V12.2z"></path> <path class="st3" d="M36.9,11.1c0.1,0.2,0.3,0.4,0.5,0.5c0.2,0.1,0.5,0.2,0.7,0.2c0.3,0,0.5-0.1,0.7-0.2s0.4-0.3,0.6-0.5 c0,0,0,0,0.1,0c0,0,0,0,0.1,0l0.5,0.2c0.1,0,0.1,0.1,0,0.1c-0.2,0.2-0.4,0.5-0.6,0.6c-0.2,0.2-0.4,0.3-0.7,0.3 c-0.2,0.1-0.5,0.1-0.8,0.1c-0.5,0-0.9-0.1-1.2-0.3c-0.4-0.2-0.6-0.5-0.8-0.9s-0.3-0.8-0.3-1.3c0-0.5,0.1-1,0.3-1.4 c0.2-0.4,0.5-0.7,0.8-0.9c0.4-0.2,0.8-0.3,1.2-0.3c0.4,0,0.8,0.1,1.2,0.3c0.3,0.2,0.6,0.5,0.8,0.9s0.3,0.8,0.3,1.3 c0,0.1,0,0.1,0,0.1c0,0-0.1,0.1-0.1,0.1h-3.4c0,0-0.1,0-0.1,0s0,0.1,0,0.1C36.8,10.6,36.8,10.8,36.9,11.1z M39.2,9.6 c0.1,0,0.1,0,0.1,0c0,0,0-0.1,0-0.1c0-0.2-0.1-0.4-0.2-0.7S39,8.5,38.8,8.3c-0.2-0.1-0.4-0.2-0.7-0.2c-0.3,0-0.5,0.1-0.7,0.2 c-0.2,0.1-0.4,0.3-0.5,0.5c-0.1,0.2-0.2,0.5-0.2,0.7L39.2,9.6z"></path> <path class="st3" d="M41.3,12.3V7.7c0-0.1,0-0.1,0.1-0.1h0.7c0.1,0,0.1,0,0.1,0.1v0.5c0,0,0,0,0,0.1c0,0,0,0,0.1,0 c0.2-0.2,0.4-0.3,0.5-0.4c0.2-0.1,0.3-0.2,0.5-0.3s0.4-0.1,0.6-0.1c0.3,0,0.6,0.1,0.8,0.2s0.4,0.4,0.4,0.6c0,0,0,0,0.1,0 c0,0,0,0,0.1,0c0.2-0.2,0.4-0.3,0.5-0.4c0.2-0.1,0.4-0.2,0.5-0.3c0.2-0.1,0.4-0.1,0.6-0.1c0.4,0,0.8,0.1,1,0.4 c0.2,0.3,0.4,0.6,0.4,1v3.3c0,0.1-0.1,0.2-0.2,0.2h-0.7c0,0-0.1,0-0.1,0c0,0,0-0.1,0-0.1V9.1c0-0.3-0.1-0.5-0.2-0.6 c-0.1-0.2-0.3-0.2-0.6-0.2c-0.2,0-0.3,0-0.5,0.1c-0.1,0.1-0.3,0.1-0.4,0.2c-0.1,0.1-0.2,0.2-0.3,0.3c0,0-0.1,0.1-0.1,0.1 c0,0,0,0.1,0,0.1v3.2c0,0.1-0.1,0.2-0.2,0.2h-0.7c0,0-0.1,0-0.1,0c0,0,0-0.1,0-0.1V9.1c0-0.3-0.1-0.5-0.2-0.6 c-0.1-0.2-0.3-0.2-0.6-0.2c-0.2,0-0.4,0.1-0.6,0.2c-0.2,0.1-0.4,0.3-0.7,0.5v3.3c0,0.1-0.1,0.2-0.2,0.2h-0.6 C41.4,12.4,41.3,12.4,41.3,12.3z"></path> <path class="st3" d="M49.8,12.4c-0.1,0-0.1,0-0.1,0s0-0.1,0-0.1V5.8c0-0.1,0-0.1,0.1-0.1h0.7c0.1,0,0.1,0,0.1,0.1V8 c0,0.1,0,0.1,0,0.1s0.1,0,0.1,0C50.8,8,50.9,7.9,51,7.8c0.1-0.1,0.3-0.2,0.5-0.2c0.2-0.1,0.4-0.1,0.6-0.1c0.4,0,0.8,0.1,1.1,0.3 c0.3,0.2,0.5,0.5,0.6,0.9S54,9.5,54,10c0,0.8-0.2,1.4-0.5,1.8s-0.9,0.7-1.5,0.7c-0.3,0-0.5,0-0.7-0.1s-0.4-0.2-0.5-0.3 c-0.1-0.1-0.2-0.2-0.3-0.3c0,0,0,0-0.1,0c0,0,0,0,0,0.1l-0.1,0.4c0,0.1-0.1,0.2-0.2,0.2H49.8z M50.6,10.8c0,0.2,0.1,0.4,0.2,0.6 s0.3,0.3,0.4,0.4c0.2,0.1,0.4,0.1,0.6,0.1c0.2,0,0.5-0.1,0.7-0.2c0.2-0.1,0.4-0.3,0.5-0.6C53,10.8,53,10.4,53,10 c0-0.6-0.1-1.1-0.3-1.4c-0.2-0.3-0.5-0.5-0.9-0.5c-0.2,0-0.5,0.1-0.7,0.2c-0.2,0.1-0.4,0.3-0.5,0.4V10.8z"></path> <path class="st3" d="M57.1,12.3c-0.3,0.1-0.5,0.2-0.9,0.2c-0.5,0-0.8-0.1-1.1-0.4c-0.3-0.2-0.4-0.6-0.4-1c0-0.3,0.1-0.6,0.3-0.9 s0.5-0.4,0.8-0.6c0.4-0.1,0.8-0.2,1.3-0.2l0.6,0c0,0,0.1,0,0.1,0s0-0.1,0-0.1V9.1c0-0.3-0.1-0.5-0.3-0.7s-0.4-0.3-0.7-0.3 c-0.2,0-0.5,0.1-0.7,0.2c-0.2,0.1-0.4,0.3-0.5,0.5c0,0,0,0.1-0.1,0.1c0,0-0.1,0-0.1,0l-0.6-0.2c0,0,0,0,0,0s0-0.1,0-0.1 c0.2-0.3,0.4-0.6,0.8-0.8s0.8-0.3,1.3-0.3c0.4,0,0.8,0.1,1.1,0.2s0.5,0.3,0.6,0.5c0.1,0.2,0.2,0.5,0.2,0.8v3.2c0,0.1,0,0.1,0,0.1 c0,0-0.1,0-0.1,0h-0.6c0,0-0.1,0-0.1,0s0-0.1,0-0.1l0-0.3c0-0.1-0.1-0.1-0.2,0C57.6,12.1,57.3,12.2,57.1,12.3z M57.8,10l-0.5,0 c-0.2,0-0.5,0-0.7,0.1s-0.4,0.1-0.5,0.2s-0.3,0.2-0.3,0.3s-0.1,0.3-0.1,0.4c0,0.2,0.1,0.4,0.3,0.6s0.4,0.2,0.7,0.2 c0.2,0,0.4,0,0.5-0.1c0.2-0.1,0.3-0.1,0.4-0.2c0.1-0.1,0.2-0.2,0.3-0.3c0.1-0.1,0.1-0.2,0.1-0.3v-0.7C57.9,10,57.9,10,57.8,10z"></path> <path class="st3" d="M60.1,12.3V7.7c0-0.1,0-0.1,0.1-0.1h0.7c0.1,0,0.1,0,0.1,0.1v0.5c0,0,0,0,0,0.1c0,0,0,0,0.1,0 c0.2-0.2,0.4-0.3,0.5-0.4s0.3-0.2,0.5-0.3s0.4-0.1,0.6-0.1c0.5,0,0.8,0.1,1.1,0.4c0.3,0.3,0.4,0.6,0.4,1v3.4 c0,0.1-0.1,0.2-0.2,0.2h-0.7c0,0-0.1,0-0.1,0c0,0,0-0.1,0-0.1V9.1c0-0.3-0.1-0.5-0.2-0.6c-0.1-0.2-0.4-0.2-0.6-0.2 c-0.2,0-0.3,0-0.5,0.1s-0.3,0.1-0.4,0.2c-0.1,0.1-0.3,0.2-0.5,0.4v3.3c0,0.1-0.1,0.2-0.2,0.2h-0.6C60.1,12.4,60.1,12.4,60.1,12.3 z"></path> <path class="st3" d="M70.1,7.5c0,0,0,0.1,0,0.1V8c0,0.1,0,0.1,0,0.1s-0.1,0-0.1,0c-0.1,0-0.2,0-0.3,0c-0.1,0-0.1,0-0.2,0 c-0.2,0-0.2,0.1-0.2,0.2c0,0.1,0.1,0.1,0.1,0.2s0,0.2,0,0.3c0,0.3-0.1,0.5-0.2,0.7s-0.4,0.4-0.7,0.5c-0.3,0.1-0.7,0.2-1.1,0.2 c-0.3,0-0.5,0-0.7,0.1s-0.3,0.1-0.4,0.1c-0.1,0.1-0.1,0.1-0.1,0.2c0,0.1,0.1,0.2,0.2,0.2c0.1,0,0.3,0.1,0.6,0.1l1.2,0.1 c0.6,0,1,0.2,1.2,0.4s0.4,0.5,0.4,0.9c0,0.5-0.2,0.8-0.6,1.1c-0.4,0.3-1,0.4-1.8,0.4c-0.8,0-1.4-0.1-1.8-0.3 c-0.4-0.2-0.6-0.5-0.6-0.9c0-0.2,0.1-0.4,0.2-0.6c0.2-0.2,0.4-0.3,0.6-0.4c0.1,0,0.1-0.1,0-0.1c-0.1-0.1-0.2-0.1-0.3-0.2 c-0.1-0.1-0.1-0.2-0.1-0.3c0-0.1,0-0.2,0.1-0.3c0.1-0.1,0.2-0.2,0.3-0.3c0.1-0.1,0.3-0.1,0.4-0.2c0,0,0,0,0.1,0s0,0-0.1-0.1 c-0.3-0.1-0.5-0.3-0.6-0.5S65.3,9.3,65.3,9c0-0.5,0.2-0.8,0.5-1.1c0.4-0.3,0.9-0.4,1.6-0.4c0.3,0,0.6,0,0.8,0.1 c0.2,0.1,0.4,0.2,0.6,0.3c0,0,0.1,0,0.1,0s0.1,0,0.1-0.1c0.1-0.1,0.2-0.1,0.3-0.2c0.1-0.1,0.2-0.1,0.3-0.2c0.1,0,0.2-0.1,0.3-0.1 C70,7.5,70.1,7.5,70.1,7.5z M66.6,11.9c-0.1,0-0.2,0-0.4,0.1c-0.1,0.1-0.2,0.1-0.3,0.3c-0.1,0.1-0.1,0.2-0.1,0.4 c0,0.2,0.1,0.3,0.2,0.4s0.3,0.2,0.6,0.3c0.3,0.1,0.6,0.1,1,0.1c0.5,0,0.8-0.1,1.1-0.2c0.2-0.1,0.4-0.3,0.4-0.6 c0-0.2-0.1-0.3-0.2-0.4c-0.1-0.1-0.4-0.2-0.7-0.2L66.6,11.9z M68.3,9.7c0.2-0.2,0.3-0.4,0.3-0.7c0-0.3-0.1-0.5-0.3-0.7 c-0.2-0.2-0.5-0.3-0.9-0.3c-0.4,0-0.7,0.1-0.9,0.3c-0.2,0.2-0.3,0.4-0.3,0.7c0,0.3,0.1,0.5,0.3,0.7C66.7,9.9,67,10,67.4,10 C67.8,10,68.1,9.9,68.3,9.7z"></path> </g> </g> </g> </svg> 