<?xml version="1.0" encoding="UTF-8"?> <svg xmlns="http://www.w3.org/2000/svg" xmlns:xlink="http://www.w3.org/1999/xlink" version="1.1" id="Layer_2_00000054261373889544978970000006960549718958258593_" x="0px" y="0px" viewBox="0 0 49.3 89.4" style="enable-background:new 0 0 49.3 89.4;" xml:space="preserve"> <style type="text/css"> .st0{fill:none;stroke:url(#SVGID_1_);stroke-linecap:round;stroke-miterlimit:10;} .st1{opacity:0.8;fill:url(#SVGID_00000132090078250900291040000010812904529599427004_);enable-background:new ;} .st2{enable-background:new ;} .st3{fill:#231F20;} </style> <g id="Layer_2-2"> <g> <linearGradient id="SVGID_1_" gradientUnits="userSpaceOnUse" x1="23.8" y1="36.7511" x2="24.8" y2="36.7511" gradientTransform="matrix(1 0 0 -1 0 90.5511)"> <stop offset="0" style="stop-color:#45C8FF"></stop> <stop offset="0" style="stop-color:#4ECAFF"></stop> <stop offset="0.2" style="stop-color:#84DAFF"></stop> <stop offset="0.4" style="stop-color:#B0E7FF"></stop> <stop offset="0.6" style="stop-color:#D2F1FF"></stop> <stop offset="0.7" style="stop-color:#EBF9FF"></stop> <stop offset="0.9" style="stop-color:#F9FDFF"></stop> <stop offset="1" style="stop-color:#FFFFFF"></stop> </linearGradient> <line class="st0" x1="24.3" y1="18.7" x2="24.3" y2="88.9"></line> <linearGradient id="SVGID_00000072253968345481896890000000857993727866114463_" gradientUnits="userSpaceOnUse" x1="1.490116e-08" y1="81.2011" x2="49.3" y2="81.2011" gradientTransform="matrix(1 0 0 -1 0 90.5511)"> <stop offset="0" style="stop-color:#45C8FF"></stop> <stop offset="0" style="stop-color:#4ECAFF"></stop> <stop offset="0.2" style="stop-color:#84DAFF"></stop> <stop offset="0.4" style="stop-color:#B0E7FF"></stop> <stop offset="0.6" style="stop-color:#D2F1FF"></stop> <stop offset="0.7" style="stop-color:#EBF9FF"></stop> <stop offset="0.9" style="stop-color:#F9FDFF"></stop> <stop offset="1" style="stop-color:#FFFFFF"></stop> </linearGradient> <path style="opacity:0.8;fill:url(#SVGID_00000072253968345481896890000000857993727866114463_);enable-background:new ;" d=" M42.2,0h-35C5.7,0,4.3,0.8,3.5,2.1L0.6,7.2c-0.8,1.3-0.8,2.9,0,4.3l2.9,5.1c0.8,1.3,2.2,2.1,3.7,2.1h35c1.5,0,2.9-0.8,3.7-2.1 l2.9-5.1c0.8-1.3,0.8-2.9,0-4.3l-2.9-5.1C45.1,0.8,43.7,0,42.2,0z"></path> <g class="st2"> <path class="st3" d="M10.7,13V6.6c0-0.1,0-0.1,0.1-0.1H12c0.1,0,0.1,0,0.1,0c0,0,0,0,0.1,0.1l1.8,4.8c0,0.1,0,0.1,0.1,0.1 c0,0,0,0,0.1-0.1l1.8-4.7c0-0.1,0.1-0.1,0.2-0.1h1.2c0.1,0,0.1,0,0.1,0.1V13c0,0.1-0.1,0.2-0.2,0.2h-0.8c-0.1,0-0.1,0-0.1,0 c0,0,0-0.1,0-0.1v-5c0,0,0-0.1,0,0c0,0,0,0,0,0.1l-1.9,5c0,0.1-0.1,0.1-0.2,0.1h-0.5c-0.1,0-0.2,0-0.2-0.1l-1.8-5 c0,0,0-0.1,0-0.1c0,0,0,0,0,0.1v4.9c0,0,0,0.1,0,0.1c0,0-0.1,0-0.1,0h-0.6C10.7,13.2,10.7,13.1,10.7,13z"></path> <path class="st3" d="M19.8,11.9c0.1,0.2,0.3,0.4,0.5,0.5c0.2,0.1,0.5,0.2,0.7,0.2c0.3,0,0.5-0.1,0.7-0.2s0.4-0.3,0.6-0.5 c0,0,0,0,0.1,0c0,0,0,0,0.1,0l0.5,0.2c0.1,0,0.1,0.1,0,0.1c-0.2,0.2-0.4,0.5-0.6,0.6c-0.2,0.2-0.4,0.3-0.7,0.3 c-0.2,0.1-0.5,0.1-0.8,0.1c-0.5,0-0.9-0.1-1.2-0.3c-0.4-0.2-0.6-0.5-0.8-0.9s-0.3-0.8-0.3-1.3c0-0.5,0.1-1,0.3-1.4 c0.2-0.4,0.5-0.7,0.8-0.9c0.4-0.2,0.8-0.3,1.2-0.3c0.4,0,0.8,0.1,1.2,0.3c0.3,0.2,0.6,0.5,0.8,0.9s0.3,0.8,0.3,1.3 c0,0.1,0,0.1,0,0.1c0,0-0.1,0.1-0.1,0.1h-3.4c0,0-0.1,0-0.1,0s0,0.1,0,0.1C19.6,11.4,19.7,11.6,19.8,11.9z M22.1,10.4 c0.1,0,0.1,0,0.1,0c0,0,0-0.1,0-0.1c0-0.2-0.1-0.4-0.2-0.7s-0.2-0.4-0.4-0.5C21.5,9,21.3,8.9,21,8.9c-0.3,0-0.5,0.1-0.7,0.2 c-0.2,0.1-0.4,0.3-0.5,0.5c-0.1,0.2-0.2,0.5-0.2,0.7L22.1,10.4z"></path> <path class="st3" d="M27.5,13.2c0,0,0-0.1,0-0.1v-0.3c0,0,0-0.1,0-0.1c0,0-0.1,0-0.1,0c-0.1,0.1-0.2,0.2-0.3,0.3 c-0.1,0.1-0.3,0.2-0.5,0.3c-0.2,0.1-0.4,0.1-0.6,0.1c-0.4,0-0.7-0.1-1-0.3c-0.3-0.2-0.5-0.5-0.7-0.8c-0.2-0.4-0.3-0.8-0.3-1.4 c0-0.5,0.1-1,0.3-1.3c0.2-0.4,0.4-0.7,0.7-0.9c0.3-0.2,0.7-0.3,1.1-0.3c0.3,0,0.5,0,0.7,0.1c0.2,0.1,0.4,0.2,0.5,0.3 c0,0,0.1,0.1,0.1,0c0,0,0,0,0-0.1V6.6c0-0.1,0-0.1,0.1-0.1h0.7c0.1,0,0.1,0,0.1,0.1V13c0,0.1,0,0.1,0,0.1s-0.1,0-0.1,0h-0.6 C27.6,13.2,27.5,13.2,27.5,13.2z M26.9,9.1C26.7,9,26.5,9,26.3,9C26,9,25.8,9,25.6,9.2s-0.4,0.3-0.5,0.6c-0.1,0.3-0.2,0.6-0.2,1 c0,0.4,0.1,0.8,0.2,1c0.1,0.3,0.3,0.5,0.5,0.6c0.2,0.1,0.4,0.2,0.7,0.2c0.2,0,0.4-0.1,0.6-0.2s0.3-0.2,0.4-0.4 c0.1-0.2,0.2-0.3,0.2-0.5V9.5C27.3,9.3,27.1,9.2,26.9,9.1z"></path> <path class="st3" d="M31.7,13.1c-0.3,0.1-0.5,0.2-0.9,0.2c-0.5,0-0.8-0.1-1.1-0.4c-0.3-0.2-0.4-0.6-0.4-1c0-0.3,0.1-0.6,0.3-0.9 s0.5-0.4,0.8-0.6c0.4-0.1,0.8-0.2,1.3-0.2l0.6,0c0,0,0.1,0,0.1,0s0-0.1,0-0.1V9.9c0-0.3-0.1-0.5-0.3-0.7s-0.4-0.3-0.7-0.3 c-0.2,0-0.5,0.1-0.7,0.2c-0.2,0.1-0.4,0.3-0.5,0.5c0,0,0,0.1-0.1,0.1c0,0-0.1,0-0.1,0l-0.6-0.2c0,0,0,0,0,0s0-0.1,0-0.1 C29.7,9,30,8.7,30.3,8.6s0.8-0.3,1.3-0.3c0.4,0,0.8,0.1,1.1,0.2s0.5,0.3,0.6,0.5c0.1,0.2,0.2,0.5,0.2,0.8V13c0,0.1,0,0.1,0,0.1 c0,0-0.1,0-0.1,0h-0.6c0,0-0.1,0-0.1,0s0-0.1,0-0.1l0-0.3c0-0.1-0.1-0.1-0.2,0C32.2,12.9,31.9,13,31.7,13.1z M32.4,10.8l-0.5,0 c-0.2,0-0.5,0-0.7,0.1s-0.4,0.1-0.5,0.2s-0.3,0.2-0.3,0.3s-0.1,0.3-0.1,0.4c0,0.2,0.1,0.4,0.3,0.6s0.4,0.2,0.7,0.2 c0.2,0,0.4,0,0.5-0.1c0.2-0.1,0.3-0.1,0.4-0.2c0.1-0.1,0.2-0.2,0.3-0.3c0.1-0.1,0.1-0.2,0.1-0.3v-0.7 C32.5,10.8,32.5,10.8,32.4,10.8z"></path> <path class="st3" d="M34.7,13.1V8.5c0-0.1,0-0.1,0.1-0.1h0.7c0.1,0,0.1,0,0.1,0.1V9c0,0,0,0,0,0.1c0,0,0,0,0.1,0 c0.2-0.2,0.4-0.3,0.5-0.4s0.3-0.2,0.5-0.3s0.4-0.1,0.6-0.1c0.5,0,0.8,0.1,1.1,0.4c0.3,0.3,0.4,0.6,0.4,1V13 c0,0.1-0.1,0.2-0.2,0.2H38c0,0-0.1,0-0.1,0c0,0,0-0.1,0-0.1V9.9c0-0.3-0.1-0.5-0.2-0.6C37.5,9.1,37.3,9,37,9 c-0.2,0-0.3,0-0.5,0.1s-0.3,0.1-0.4,0.2c-0.1,0.1-0.3,0.2-0.5,0.4V13c0,0.1-0.1,0.2-0.2,0.2h-0.6C34.7,13.2,34.7,13.2,34.7,13.1z "></path> </g> </g> </g> </svg> 