<?xml version="1.0" encoding="UTF-8"?> <svg xmlns="http://www.w3.org/2000/svg" xmlns:xlink="http://www.w3.org/1999/xlink" version="1.1" id="Layer_2_00000160186853523297846420000003295149210809801888_" x="0px" y="0px" viewBox="0 0 59.9 71.1" style="enable-background:new 0 0 59.9 71.1;" xml:space="preserve"> <style type="text/css"> .st0{fill:none;stroke:url(#SVGID_1_);stroke-linecap:round;stroke-miterlimit:10;} .st1{opacity:0.8;fill:url(#SVGID_00000013168307069915115590000002694370778854557056_);enable-background:new ;} .st2{enable-background:new ;} .st3{fill:#231F20;} </style> <g id="Layer_2-2"> <g> <linearGradient id="SVGID_1_" gradientUnits="userSpaceOnUse" x1="29.5" y1="46.1511" x2="30.5" y2="46.1511" gradientTransform="matrix(1 0 0 -1 0 72.5511)"> <stop offset="0" style="stop-color:#45C8FF"></stop> <stop offset="0" style="stop-color:#4ECAFF"></stop> <stop offset="0.2" style="stop-color:#84DAFF"></stop> <stop offset="0.4" style="stop-color:#B0E7FF"></stop> <stop offset="0.6" style="stop-color:#D2F1FF"></stop> <stop offset="0.7" style="stop-color:#EBF9FF"></stop> <stop offset="0.9" style="stop-color:#F9FDFF"></stop> <stop offset="1" style="stop-color:#FFFFFF"></stop> </linearGradient> <line class="st0" x1="30" y1="0.5" x2="30" y2="52.3"></line> <g> <linearGradient id="SVGID_00000008137373925883136410000013950756471457922461_" gradientUnits="userSpaceOnUse" x1="-3.427267e-07" y1="10.8011" x2="59.9" y2="10.8011" gradientTransform="matrix(1 0 0 -1 0 72.5511)"> <stop offset="0" style="stop-color:#45C8FF"></stop> <stop offset="0" style="stop-color:#4ECAFF"></stop> <stop offset="0.2" style="stop-color:#84DAFF"></stop> <stop offset="0.4" style="stop-color:#B0E7FF"></stop> <stop offset="0.6" style="stop-color:#D2F1FF"></stop> <stop offset="0.7" style="stop-color:#EBF9FF"></stop> <stop offset="0.9" style="stop-color:#F9FDFF"></stop> <stop offset="1" style="stop-color:#FFFFFF"></stop> </linearGradient> <path style="opacity:0.8;fill:url(#SVGID_00000008137373925883136410000013950756471457922461_);enable-background:new ;" d=" M52.8,52.4H7.2c-1.5,0-2.9,0.8-3.7,2.1l-2.9,5.1c-0.8,1.3-0.8,2.9,0,4.3L3.5,69c0.8,1.3,2.2,2.1,3.7,2.1h45.6 c1.5,0,2.9-0.8,3.7-2.1l2.9-5.1c0.8-1.3,0.8-2.9,0-4.3l-2.9-5.1C55.7,53.2,54.3,52.4,52.8,52.4z"></path> <g class="st2"> <path class="st3" d="M10.6,58.5h0.9c0.1,0,0.1,0,0.1,0.1v5.7c0,0.1,0,0.1,0.1,0.1h3.1c0.1,0,0.1,0,0.1,0.1v0.6c0,0,0,0.1,0,0.1 c0,0-0.1,0-0.1,0h-4.1c-0.1,0-0.1,0-0.1,0c0,0,0-0.1,0-0.1v-6.5C10.5,58.6,10.5,58.5,10.6,58.5z"></path> <path class="st3" d="M17.9,65.2c-0.3,0.1-0.5,0.2-0.9,0.2c-0.5,0-0.8-0.1-1.1-0.4c-0.3-0.2-0.4-0.6-0.4-1c0-0.3,0.1-0.6,0.3-0.9 c0.2-0.2,0.5-0.4,0.8-0.6c0.4-0.1,0.8-0.2,1.3-0.2l0.6,0c0,0,0.1,0,0.1,0s0-0.1,0-0.1V62c0-0.3-0.1-0.5-0.3-0.7 C18.3,61.1,18,61,17.7,61c-0.2,0-0.5,0.1-0.7,0.2c-0.2,0.1-0.4,0.3-0.5,0.5c0,0,0,0.1-0.1,0.1c0,0-0.1,0-0.1,0l-0.6-0.2 c0,0,0,0-0.1,0c0,0,0-0.1,0-0.1c0.2-0.3,0.4-0.6,0.8-0.8s0.8-0.3,1.3-0.3c0.4,0,0.8,0.1,1.1,0.2c0.3,0.1,0.5,0.3,0.6,0.5 c0.1,0.2,0.2,0.5,0.2,0.8v3.2c0,0.1,0,0.1,0,0.1c0,0-0.1,0-0.1,0h-0.6c0,0-0.1,0-0.1,0c0,0,0-0.1,0-0.1l0-0.3 c0-0.1-0.1-0.1-0.2,0C18.4,65,18.2,65.1,17.9,65.2z M18.6,62.9l-0.5,0c-0.2,0-0.5,0-0.7,0.1s-0.4,0.1-0.5,0.2s-0.3,0.2-0.3,0.3 s-0.1,0.3-0.1,0.4c0,0.2,0.1,0.4,0.3,0.6s0.4,0.2,0.7,0.2c0.2,0,0.4,0,0.5-0.1c0.2-0.1,0.3-0.1,0.4-0.2c0.1-0.1,0.2-0.2,0.3-0.3 s0.1-0.2,0.1-0.3V63C18.7,62.9,18.7,62.9,18.6,62.9z"></path> <path class="st3" d="M20.9,65.2v-4.5c0-0.1,0-0.1,0.1-0.1h0.7c0.1,0,0.1,0,0.1,0.1v0.5c0,0,0,0,0,0.1c0,0,0,0,0.1,0 c0.2-0.2,0.4-0.3,0.5-0.4c0.2-0.1,0.3-0.2,0.5-0.3s0.4-0.1,0.6-0.1c0.3,0,0.6,0.1,0.8,0.2s0.4,0.4,0.4,0.6c0,0,0,0,0.1,0 c0,0,0,0,0.1,0c0.2-0.2,0.4-0.3,0.5-0.4c0.2-0.1,0.4-0.2,0.5-0.3c0.2-0.1,0.4-0.1,0.6-0.1c0.4,0,0.8,0.1,1,0.4 c0.2,0.3,0.4,0.6,0.4,1v3.3c0,0.1-0.1,0.2-0.2,0.2h-0.7c0,0-0.1,0-0.1,0c0,0,0-0.1,0-0.1V62c0-0.3-0.1-0.5-0.2-0.6 c-0.1-0.2-0.3-0.2-0.6-0.2c-0.2,0-0.3,0-0.5,0.1c-0.1,0.1-0.3,0.1-0.4,0.2c-0.1,0.1-0.2,0.2-0.3,0.3c0,0-0.1,0.1-0.1,0.1 c0,0,0,0.1,0,0.1v3.2c0,0.1-0.1,0.2-0.2,0.2h-0.7c0,0-0.1,0-0.1,0c0,0,0-0.1,0-0.1V62c0-0.3-0.1-0.5-0.2-0.6 c-0.1-0.2-0.3-0.2-0.6-0.2c-0.2,0-0.4,0.1-0.6,0.2c-0.2,0.1-0.4,0.3-0.7,0.5v3.3c0,0.1-0.1,0.2-0.2,0.2h-0.6 C21,65.3,20.9,65.3,20.9,65.2z"></path> <path class="st3" d="M30.2,60.6V61c0,0,0,0.1,0,0.1c0,0,0.1,0,0.1,0c0.1-0.1,0.2-0.2,0.3-0.3c0.1-0.1,0.3-0.2,0.4-0.3 c0.2-0.1,0.4-0.1,0.7-0.1c0.4,0,0.7,0.1,1,0.3c0.3,0.2,0.5,0.4,0.7,0.8c0.2,0.4,0.3,0.8,0.3,1.4c0,0.6-0.1,1-0.3,1.4 s-0.4,0.7-0.7,0.9c-0.3,0.2-0.7,0.3-1.1,0.3c-0.3,0-0.5,0-0.7-0.1c-0.2-0.1-0.4-0.2-0.6-0.3c-0.1-0.1-0.1-0.1-0.1-0.1 c0,0,0,0.1,0,0.1v1.7c0,0.1,0,0.1-0.1,0.1h-0.7c-0.1,0-0.1,0-0.1-0.1v-6c0-0.1,0-0.1,0-0.1c0,0,0.1,0,0.1,0H30 C30.1,60.5,30.2,60.5,30.2,60.6z M30.7,64.6c0.2,0.1,0.4,0.1,0.6,0.1c0.3,0,0.5-0.1,0.7-0.2s0.4-0.4,0.5-0.6s0.2-0.6,0.2-1.1 c0-0.4-0.1-0.8-0.2-1c-0.1-0.3-0.3-0.5-0.5-0.6S31.6,61,31.3,61c-0.2,0-0.4,0-0.6,0.1c-0.2,0.1-0.3,0.2-0.4,0.4 s-0.2,0.3-0.2,0.4v2.2C30.3,64.4,30.5,64.5,30.7,64.6z"></path> <path class="st3" d="M37.1,64.5c0.2-0.1,0.4-0.3,0.6-0.5v-3.3c0-0.1,0.1-0.2,0.2-0.2h0.7c0.1,0,0.1,0,0.1,0.1l0,4.6 c0,0.1,0,0.1-0.1,0.1h-0.7c-0.1,0-0.1,0-0.1-0.1v-0.5c0,0,0,0,0-0.1c0,0,0,0-0.1,0c-0.3,0.3-0.6,0.5-0.8,0.6 c-0.3,0.1-0.5,0.2-0.8,0.2c-0.3,0-0.5-0.1-0.7-0.2c-0.2-0.1-0.4-0.3-0.5-0.5c-0.1-0.2-0.2-0.5-0.2-0.7v-3.3 c0-0.1,0.1-0.2,0.2-0.2h0.7c0.1,0,0.1,0,0.1,0.1v3.2c0,0.3,0.1,0.5,0.2,0.6c0.1,0.2,0.4,0.2,0.6,0.2 C36.7,64.7,36.9,64.6,37.1,64.5z"></path> <path class="st3" d="M40,65.2v-4.5c0-0.1,0-0.1,0.1-0.1h0.7c0.1,0,0.1,0,0.1,0.1v0.5c0,0,0,0,0,0.1c0,0,0,0,0.1,0 c0.2-0.2,0.4-0.3,0.5-0.4s0.3-0.2,0.5-0.3s0.4-0.1,0.6-0.1c0.5,0,0.8,0.1,1.1,0.4c0.3,0.3,0.4,0.6,0.4,1v3.4 c0,0.1-0.1,0.2-0.2,0.2h-0.7c0,0-0.1,0-0.1,0c0,0,0-0.1,0-0.1V62c0-0.3-0.1-0.5-0.2-0.6c-0.1-0.2-0.4-0.2-0.6-0.2 c-0.2,0-0.3,0-0.5,0.1s-0.3,0.1-0.4,0.2c-0.1,0.1-0.3,0.2-0.5,0.4v3.3c0,0.1-0.1,0.2-0.2,0.2h-0.6C40,65.3,40,65.3,40,65.2z"></path> <path class="st3" d="M50,60.4c0,0,0,0.1,0,0.1v0.4c0,0.1,0,0.1,0,0.1s-0.1,0-0.1,0c-0.1,0-0.2,0-0.3,0c-0.1,0-0.1,0-0.2,0 c-0.2,0-0.2,0.1-0.2,0.2c0,0.1,0.1,0.1,0.1,0.2s0,0.2,0,0.3c0,0.3-0.1,0.5-0.2,0.7s-0.4,0.4-0.7,0.5c-0.3,0.1-0.7,0.2-1.1,0.2 c-0.3,0-0.5,0-0.7,0.1s-0.3,0.1-0.4,0.1c-0.1,0.1-0.1,0.1-0.1,0.2c0,0.1,0.1,0.2,0.2,0.2c0.1,0,0.3,0.1,0.6,0.1l1.2,0.1 c0.6,0,1,0.2,1.2,0.4s0.4,0.5,0.4,0.9c0,0.5-0.2,0.8-0.6,1.1c-0.4,0.3-1,0.4-1.8,0.4c-0.8,0-1.4-0.1-1.8-0.3 c-0.4-0.2-0.6-0.5-0.6-0.9c0-0.2,0.1-0.4,0.2-0.6c0.2-0.2,0.4-0.3,0.6-0.4c0.1,0,0.1-0.1,0-0.1c-0.1-0.1-0.2-0.1-0.3-0.2 c-0.1-0.1-0.1-0.2-0.1-0.3c0-0.1,0-0.2,0.1-0.3s0.2-0.2,0.3-0.3c0.1-0.1,0.3-0.1,0.4-0.2c0,0,0,0,0.1,0s0,0-0.1-0.1 c-0.3-0.1-0.5-0.3-0.6-0.5c-0.1-0.2-0.2-0.4-0.2-0.7c0-0.5,0.2-0.8,0.6-1.1c0.4-0.3,0.9-0.4,1.6-0.4c0.3,0,0.6,0,0.8,0.1 c0.2,0.1,0.4,0.2,0.6,0.3c0,0,0.1,0,0.1,0c0,0,0.1,0,0.1-0.1c0.1-0.1,0.2-0.1,0.3-0.2c0.1-0.1,0.2-0.1,0.3-0.2 c0.1,0,0.2-0.1,0.3-0.1C49.9,60.4,49.9,60.4,50,60.4z M46.5,64.8c-0.1,0-0.2,0-0.4,0.1C46,65,45.9,65,45.8,65.1 c-0.1,0.1-0.1,0.2-0.1,0.4c0,0.2,0.1,0.3,0.2,0.4c0.1,0.1,0.3,0.2,0.6,0.3c0.3,0.1,0.6,0.1,1,0.1c0.5,0,0.8-0.1,1.1-0.2 s0.4-0.3,0.4-0.6c0-0.2-0.1-0.3-0.2-0.4s-0.4-0.2-0.7-0.2L46.5,64.8z M48.1,62.6c0.2-0.2,0.3-0.4,0.3-0.7c0-0.3-0.1-0.5-0.3-0.7 C48,61,47.7,61,47.3,61c-0.4,0-0.7,0.1-0.9,0.3s-0.3,0.4-0.3,0.7c0,0.3,0.1,0.5,0.3,0.7s0.5,0.3,0.9,0.3 C47.7,62.9,48,62.8,48.1,62.6z"></path> </g> </g> </g> </g> </svg> 