<?xml version="1.0" encoding="UTF-8"?> <svg xmlns="http://www.w3.org/2000/svg" xmlns:xlink="http://www.w3.org/1999/xlink" version="1.1" id="Layer_2_00000120541008090575922770000013209976446089413267_" x="0px" y="0px" viewBox="0 0 92.2 86.6" style="enable-background:new 0 0 92.2 86.6;" xml:space="preserve"> <style type="text/css"> .st0{fill:none;stroke:url(#SVGID_1_);stroke-linecap:round;stroke-miterlimit:10;} .st1{opacity:0.8;fill:url(#SVGID_00000143616113878631245240000011797089697901011891_);enable-background:new ;} .st2{enable-background:new ;} .st3{fill:#231F20;} </style> <g id="Layer_2-2"> <g> <linearGradient id="SVGID_1_" gradientUnits="userSpaceOnUse" x1="45.6" y1="36.1511" x2="46.6" y2="36.1511" gradientTransform="matrix(1 0 0 -1 0 88.5511)"> <stop offset="0" style="stop-color:#45C8FF"></stop> <stop offset="0" style="stop-color:#4ECAFF"></stop> <stop offset="0.2" style="stop-color:#84DAFF"></stop> <stop offset="0.4" style="stop-color:#B0E7FF"></stop> <stop offset="0.6" style="stop-color:#D2F1FF"></stop> <stop offset="0.7" style="stop-color:#EBF9FF"></stop> <stop offset="0.9" style="stop-color:#F9FDFF"></stop> <stop offset="1" style="stop-color:#FFFFFF"></stop> </linearGradient> <line class="st0" x1="46.1" y1="18.7" x2="46.1" y2="86.1"></line> <linearGradient id="SVGID_00000094617357188660844600000004861203358424428212_" gradientUnits="userSpaceOnUse" x1="11.5" y1="79.2011" x2="80.7" y2="79.2011" gradientTransform="matrix(1 0 0 -1 0 88.5511)"> <stop offset="0" style="stop-color:#45C8FF"></stop> <stop offset="0" style="stop-color:#4ECAFF"></stop> <stop offset="0.2" style="stop-color:#84DAFF"></stop> <stop offset="0.4" style="stop-color:#B0E7FF"></stop> <stop offset="0.6" style="stop-color:#D2F1FF"></stop> <stop offset="0.7" style="stop-color:#EBF9FF"></stop> <stop offset="0.9" style="stop-color:#F9FDFF"></stop> <stop offset="1" style="stop-color:#FFFFFF"></stop> </linearGradient> <path style="opacity:0.8;fill:url(#SVGID_00000094617357188660844600000004861203358424428212_);enable-background:new ;" d=" M73.5,0H18.7c-1.5,0-2.9,0.8-3.7,2.1l-2.9,5.1c-0.8,1.3-0.8,2.9,0,4.3l2.9,5.1c0.8,1.3,2.2,2.1,3.7,2.1h54.8 c1.5,0,2.9-0.8,3.7-2.1l2.9-5.1c0.8-1.3,0.8-2.9,0-4.3l-2.9-5.1C76.4,0.8,75,0,73.5,0z"></path> <g class="st2"> <path class="st3" d="M21.3,12.3c-0.3,0.3-0.7,0.4-1.2,0.4c-0.2,0-0.4,0-0.6-0.1c-0.2,0-0.3-0.1-0.4-0.1c0,0-0.1,0-0.1-0.1 c0,0,0-0.1,0-0.1l0.1-0.6c0-0.1,0-0.1,0.1-0.1c0.1,0,0.2,0.1,0.3,0.1c0.1,0,0.2,0.1,0.4,0.1c0.3,0,0.5-0.1,0.6-0.2 s0.2-0.4,0.2-0.8V6c0-0.1,0-0.1,0.1-0.1h0.9c0.1,0,0.1,0,0.1,0.1v5C21.7,11.6,21.6,12,21.3,12.3z"></path> <path class="st3" d="M25.1,12.5c-0.3,0.1-0.5,0.2-0.9,0.2c-0.5,0-0.8-0.1-1.1-0.4c-0.3-0.2-0.4-0.6-0.4-1c0-0.3,0.1-0.6,0.3-0.9 c0.2-0.2,0.5-0.4,0.8-0.6c0.4-0.1,0.8-0.2,1.3-0.2l0.6,0c0,0,0.1,0,0.1,0s0-0.1,0-0.1V9.3c0-0.3-0.1-0.5-0.3-0.7 c-0.2-0.2-0.4-0.3-0.7-0.3c-0.2,0-0.5,0.1-0.7,0.2c-0.2,0.1-0.4,0.3-0.5,0.5c0,0,0,0.1-0.1,0.1c0,0-0.1,0-0.1,0L23,8.9 c0,0,0,0-0.1,0c0,0,0-0.1,0-0.1c0.2-0.3,0.4-0.6,0.8-0.8s0.8-0.3,1.3-0.3c0.4,0,0.8,0.1,1.1,0.2c0.3,0.1,0.5,0.3,0.6,0.5 c0.1,0.2,0.2,0.5,0.2,0.8v3.2c0,0.1,0,0.1,0,0.1c0,0-0.1,0-0.1,0h-0.6c0,0-0.1,0-0.1,0c0,0,0-0.1,0-0.1l0-0.3 c0-0.1-0.1-0.1-0.2,0C25.6,12.3,25.4,12.4,25.1,12.5z M25.9,10.2l-0.5,0c-0.2,0-0.5,0-0.7,0.1s-0.4,0.1-0.5,0.2s-0.3,0.2-0.3,0.3 s-0.1,0.3-0.1,0.4c0,0.2,0.1,0.4,0.3,0.6s0.4,0.2,0.7,0.2c0.2,0,0.4,0,0.5-0.1c0.2-0.1,0.3-0.1,0.4-0.2c0.1-0.1,0.2-0.2,0.3-0.3 S26,11.1,26,11v-0.7C26,10.2,25.9,10.2,25.9,10.2z"></path> <path class="st3" d="M28.3,12.6c-0.1,0-0.1,0-0.1,0s0-0.1,0-0.1V6c0-0.1,0-0.1,0.1-0.1H29c0.1,0,0.1,0,0.1,0.1v2.2 c0,0.1,0,0.1,0,0.1s0.1,0,0.1,0c0.1-0.1,0.2-0.1,0.3-0.2c0.1-0.1,0.3-0.2,0.5-0.2c0.2-0.1,0.4-0.1,0.6-0.1c0.4,0,0.8,0.1,1.1,0.3 c0.3,0.2,0.5,0.5,0.6,0.9s0.2,0.8,0.2,1.3c0,0.8-0.2,1.4-0.5,1.8c-0.4,0.5-0.9,0.7-1.5,0.7c-0.3,0-0.5,0-0.7-0.1 c-0.2-0.1-0.4-0.2-0.5-0.3S29.1,12.1,29,12c0,0,0,0-0.1,0c0,0,0,0,0,0.1l-0.1,0.4c0,0.1-0.1,0.2-0.2,0.2H28.3z M29.1,11 c0,0.2,0.1,0.4,0.2,0.6s0.3,0.3,0.4,0.4c0.2,0.1,0.4,0.1,0.6,0.1c0.2,0,0.5-0.1,0.7-0.2c0.2-0.1,0.4-0.3,0.5-0.6 c0.1-0.3,0.2-0.6,0.2-1.1c0-0.6-0.1-1.1-0.3-1.4c-0.2-0.3-0.5-0.5-0.9-0.5c-0.2,0-0.5,0.1-0.7,0.2c-0.2,0.1-0.4,0.3-0.5,0.4V11z"></path> <path class="st3" d="M34.5,12.4c-0.4-0.2-0.6-0.5-0.8-0.9s-0.3-0.8-0.3-1.3c0-0.5,0.1-0.9,0.3-1.3s0.5-0.7,0.8-0.9 c0.4-0.2,0.8-0.3,1.2-0.3c0.5,0,0.9,0.1,1.2,0.3c0.3,0.2,0.6,0.5,0.8,0.9c0.2,0.4,0.3,0.8,0.3,1.3c0,0.5-0.1,0.9-0.3,1.3 s-0.5,0.7-0.8,0.9c-0.4,0.2-0.8,0.3-1.2,0.3C35.2,12.7,34.8,12.6,34.5,12.4z M36.5,11.8c0.2-0.1,0.4-0.4,0.5-0.6 c0.1-0.3,0.2-0.6,0.2-1c0-0.4-0.1-0.7-0.2-1c-0.1-0.3-0.3-0.5-0.5-0.6c-0.2-0.1-0.4-0.2-0.7-0.2S35.2,8.4,35,8.6 c-0.2,0.1-0.4,0.4-0.5,0.6c-0.1,0.3-0.2,0.6-0.2,1c0,0.4,0.1,0.7,0.2,1c0.1,0.3,0.3,0.5,0.5,0.6c0.2,0.1,0.5,0.2,0.7,0.2 C36,12,36.3,11.9,36.5,11.8z"></path> <path class="st3" d="M42.4,12.6c0,0,0-0.1,0-0.1v-0.3c0,0,0-0.1,0-0.1c0,0-0.1,0-0.1,0c-0.1,0.1-0.2,0.2-0.3,0.3 c-0.1,0.1-0.3,0.2-0.5,0.3c-0.2,0.1-0.4,0.1-0.6,0.1c-0.4,0-0.7-0.1-1-0.3c-0.3-0.2-0.5-0.5-0.7-0.8c-0.2-0.4-0.3-0.8-0.3-1.4 c0-0.5,0.1-1,0.3-1.3c0.2-0.4,0.4-0.7,0.7-0.9c0.3-0.2,0.7-0.3,1.1-0.3c0.3,0,0.5,0,0.7,0.1C41.8,7.9,42,8,42.2,8.2 c0,0,0.1,0.1,0.1,0c0,0,0,0,0-0.1V6c0-0.1,0-0.1,0.1-0.1h0.7c0.1,0,0.1,0,0.1,0.1v6.5c0,0.1,0,0.1,0,0.1s-0.1,0-0.1,0h-0.6 C42.4,12.6,42.4,12.6,42.4,12.6z M41.8,8.5c-0.2-0.1-0.4-0.1-0.6-0.1c-0.3,0-0.5,0.1-0.7,0.2S40.1,8.9,40,9.2 c-0.1,0.3-0.2,0.6-0.2,1c0,0.4,0.1,0.8,0.2,1c0.1,0.3,0.3,0.5,0.5,0.6c0.2,0.1,0.4,0.2,0.7,0.2c0.2,0,0.4-0.1,0.6-0.2 s0.3-0.2,0.4-0.4c0.1-0.2,0.2-0.3,0.2-0.5V8.9C42.1,8.7,42,8.6,41.8,8.5z"></path> </g> <g class="st2"> <path class="st3" d="M45.5,11.3c0.1,0.2,0.3,0.4,0.5,0.5c0.2,0.1,0.5,0.2,0.7,0.2c0.3,0,0.5-0.1,0.7-0.2c0.2-0.1,0.4-0.3,0.6-0.5 c0,0,0,0,0.1,0s0,0,0.1,0l0.5,0.2c0.1,0,0.1,0.1,0,0.1c-0.2,0.2-0.4,0.5-0.6,0.6c-0.2,0.2-0.4,0.3-0.7,0.3 c-0.2,0.1-0.5,0.1-0.8,0.1c-0.5,0-0.9-0.1-1.2-0.3c-0.4-0.2-0.6-0.5-0.8-0.9s-0.3-0.8-0.3-1.3c0-0.5,0.1-1,0.3-1.4 c0.2-0.4,0.5-0.7,0.8-0.9c0.4-0.2,0.8-0.3,1.2-0.3c0.4,0,0.8,0.1,1.2,0.3c0.3,0.2,0.6,0.5,0.8,0.9c0.2,0.4,0.3,0.8,0.3,1.3 c0,0.1,0,0.1,0,0.1c0,0-0.1,0.1-0.1,0.1h-3.4c0,0-0.1,0-0.1,0s0,0.1,0,0.1C45.3,10.8,45.3,11,45.5,11.3z M47.8,9.8 c0.1,0,0.1,0,0.1,0c0,0,0-0.1,0-0.1c0-0.2,0-0.4-0.2-0.7c-0.1-0.2-0.2-0.4-0.4-0.5c-0.2-0.1-0.4-0.2-0.7-0.2 c-0.3,0-0.5,0.1-0.7,0.2c-0.2,0.1-0.4,0.3-0.5,0.5c-0.1,0.2-0.2,0.5-0.2,0.7L47.8,9.8z"></path> </g> <g class="st2"> <path class="st3" d="M51.1,8.5C51.1,8.5,51.1,8.5,51.1,8.5l-0.1,2.8c0,0.3,0,0.4,0.1,0.5c0.1,0.1,0.2,0.1,0.4,0.1h0.6 c0,0,0.1,0,0.1,0s0,0,0,0.1v0.4c0,0.1,0,0.1-0.1,0.2c-0.1,0-0.2,0-0.3,0c-0.1,0-0.2,0-0.3,0c-0.1,0-0.2,0-0.3,0 c-0.4,0-0.7-0.1-0.9-0.3c-0.2-0.2-0.3-0.5-0.3-0.9V8.6c0-0.1,0-0.1-0.1-0.1h-0.7c-0.1,0-0.1,0-0.1-0.1V7.9c0-0.1,0-0.1,0.1-0.1 H50c0,0,0.1,0,0.1-0.1l0.1-1.4c0-0.1,0-0.1,0.1-0.1H51c0.1,0,0.1,0,0.1,0.1v1.4c0,0.1,0,0.1,0.1,0.1h1.1c0.1,0,0.1,0,0.1,0.1v0.5 c0,0.1,0,0.1-0.1,0.1H51.1z"></path> <path class="st3" d="M55.3,12.5c-0.3,0.1-0.5,0.2-0.9,0.2c-0.5,0-0.8-0.1-1.1-0.4c-0.3-0.2-0.4-0.6-0.4-1c0-0.3,0.1-0.6,0.3-0.9 s0.5-0.4,0.8-0.6c0.4-0.1,0.8-0.2,1.3-0.2l0.6,0c0,0,0.1,0,0.1,0s0-0.1,0-0.1V9.3c0-0.3-0.1-0.5-0.3-0.7 c-0.2-0.2-0.4-0.3-0.7-0.3c-0.2,0-0.5,0.1-0.7,0.2c-0.2,0.1-0.4,0.3-0.5,0.5c0,0,0,0.1-0.1,0.1c0,0-0.1,0-0.1,0l-0.6-0.2 c0,0,0,0,0,0s0-0.1,0-0.1c0.2-0.3,0.4-0.6,0.8-0.8s0.8-0.3,1.3-0.3c0.4,0,0.8,0.1,1.1,0.2c0.3,0.1,0.5,0.3,0.6,0.5 s0.2,0.5,0.2,0.8v3.2c0,0.1,0,0.1,0,0.1c0,0-0.1,0-0.1,0h-0.6c0,0-0.1,0-0.1,0c0,0,0-0.1,0-0.1l0-0.3c0-0.1-0.1-0.1-0.2,0 C55.8,12.3,55.6,12.4,55.3,12.5z M56,10.2l-0.5,0c-0.2,0-0.5,0-0.7,0.1s-0.4,0.1-0.5,0.2s-0.3,0.2-0.3,0.3s-0.1,0.3-0.1,0.4 c0,0.2,0.1,0.4,0.3,0.6s0.4,0.2,0.7,0.2c0.2,0,0.4,0,0.5-0.1s0.3-0.1,0.4-0.2c0.1-0.1,0.2-0.2,0.3-0.3c0.1-0.1,0.1-0.2,0.1-0.3 v-0.7C56.1,10.2,56.1,10.2,56,10.2z"></path> <path class="st3" d="M58.5,12.6c-0.1,0-0.1,0-0.1,0c0,0,0-0.1,0-0.1V6c0-0.1,0-0.1,0.1-0.1h0.7c0.1,0,0.1,0,0.1,0.1v2.2 c0,0.1,0,0.1,0,0.1s0.1,0,0.1,0c0.1-0.1,0.2-0.1,0.3-0.2c0.1-0.1,0.3-0.2,0.5-0.2c0.2-0.1,0.4-0.1,0.6-0.1c0.4,0,0.8,0.1,1.1,0.3 c0.3,0.2,0.5,0.5,0.6,0.9s0.2,0.8,0.2,1.3c0,0.8-0.2,1.4-0.5,1.8c-0.4,0.5-0.9,0.7-1.5,0.7c-0.3,0-0.5,0-0.7-0.1 c-0.2-0.1-0.4-0.2-0.5-0.3c-0.1-0.1-0.2-0.2-0.3-0.3c0,0,0,0-0.1,0c0,0,0,0,0,0.1L59,12.4c0,0.1-0.1,0.2-0.2,0.2H58.5z M59.3,11 c0,0.2,0.1,0.4,0.2,0.6c0.1,0.2,0.3,0.3,0.4,0.4c0.2,0.1,0.4,0.1,0.6,0.1c0.2,0,0.5-0.1,0.7-0.2c0.2-0.1,0.4-0.3,0.5-0.6 c0.1-0.3,0.2-0.6,0.2-1.1c0-0.6-0.1-1.1-0.3-1.4c-0.2-0.3-0.5-0.5-0.9-0.5c-0.2,0-0.5,0.1-0.7,0.2c-0.2,0.1-0.4,0.3-0.5,0.4V11z"></path> <path class="st3" d="M64.7,11.3c0.1,0.2,0.3,0.4,0.5,0.5c0.2,0.1,0.5,0.2,0.7,0.2c0.3,0,0.5-0.1,0.7-0.2c0.2-0.1,0.4-0.3,0.6-0.5 c0,0,0,0,0.1,0c0,0,0,0,0.1,0l0.5,0.2c0.1,0,0.1,0.1,0,0.1c-0.2,0.2-0.4,0.5-0.6,0.6c-0.2,0.2-0.4,0.3-0.7,0.3 c-0.2,0.1-0.5,0.1-0.8,0.1c-0.5,0-0.9-0.1-1.2-0.3c-0.4-0.2-0.6-0.5-0.8-0.9s-0.3-0.8-0.3-1.3c0-0.5,0.1-1,0.3-1.4 C64,8.5,64.3,8.2,64.7,8c0.4-0.2,0.8-0.3,1.2-0.3c0.4,0,0.8,0.1,1.2,0.3s0.6,0.5,0.8,0.9s0.3,0.8,0.3,1.3c0,0.1,0,0.1,0,0.1 c0,0-0.1,0.1-0.1,0.1h-3.4c0,0-0.1,0-0.1,0c0,0,0,0.1,0,0.1C64.5,10.8,64.6,11,64.7,11.3z M67,9.8c0.1,0,0.1,0,0.1,0 c0,0,0-0.1,0-0.1c0-0.2-0.1-0.4-0.2-0.7c-0.1-0.2-0.2-0.4-0.4-0.5c-0.2-0.1-0.4-0.2-0.7-0.2c-0.3,0-0.5,0.1-0.7,0.2 c-0.2,0.1-0.4,0.3-0.5,0.5s-0.2,0.5-0.2,0.7L67,9.8z"></path> <path class="st3" d="M73.5,12.5c0,0-0.1,0.1-0.1,0.1h-0.8c0,0-0.1,0-0.1,0c0,0-0.1-0.1-0.1-0.1l-1.2-2.2c0,0,0-0.1,0-0.1 c0,0,0,0-0.1,0l-0.9,0.9c0,0,0,0-0.1,0.1s0,0.1,0,0.1v1.1c0,0.1,0,0.1,0,0.1s-0.1,0-0.1,0h-0.6c-0.1,0-0.1,0-0.1,0 c0,0,0-0.1,0-0.1V6c0-0.1,0-0.1,0.1-0.1h0.7c0.1,0,0.1,0,0.1,0.1v4.1c0,0,0,0.1,0,0.1c0,0,0,0,0.1,0l2.1-2.2 c0.1-0.1,0.1-0.1,0.2-0.1h0.7c0.1,0,0.1,0,0.1,0.1s0,0.1-0.1,0.1l-1.4,1.4c0,0,0,0,0,0.1c0,0,0,0.1,0,0.1l1.7,2.9 C73.5,12.5,73.5,12.5,73.5,12.5z"></path> </g> </g> </g> </svg> 