<?xml version="1.0" encoding="UTF-8"?> <svg xmlns="http://www.w3.org/2000/svg" xmlns:xlink="http://www.w3.org/1999/xlink" version="1.1" id="Layer_2_00000067236229387243266810000009283712815098810557_" x="0px" y="0px" viewBox="0 0 44.9 78" style="enable-background:new 0 0 44.9 78;" xml:space="preserve"> <style type="text/css"> .st0{fill:none;stroke:url(#SVGID_1_);stroke-linecap:round;stroke-miterlimit:10;} .st1{opacity:0.8;fill:url(#SVGID_00000181797482162862130420000006687758423285744559_);enable-background:new ;} .st2{enable-background:new ;} .st3{fill:#231F20;} </style> <g id="Layer_2-2"> <g> <linearGradient id="SVGID_1_" gradientUnits="userSpaceOnUse" x1="21.9" y1="25.6011" x2="22.9" y2="25.6011" gradientTransform="matrix(1 0 0 -1 0 78.5511)"> <stop offset="0" style="stop-color:#45C8FF"></stop> <stop offset="0" style="stop-color:#4ECAFF"></stop> <stop offset="0.2" style="stop-color:#84DAFF"></stop> <stop offset="0.4" style="stop-color:#B0E7FF"></stop> <stop offset="0.6" style="stop-color:#D2F1FF"></stop> <stop offset="0.7" style="stop-color:#EBF9FF"></stop> <stop offset="0.9" style="stop-color:#F9FDFF"></stop> <stop offset="1" style="stop-color:#FFFFFF"></stop> </linearGradient> <line class="st0" x1="22.4" y1="28.4" x2="22.4" y2="77.5"></line> <linearGradient id="SVGID_00000158745790767691735530000003365672608540670344_" gradientUnits="userSpaceOnUse" x1="1.490116e-08" y1="64.3511" x2="44.9" y2="64.3511" gradientTransform="matrix(1 0 0 -1 0 78.5511)"> <stop offset="0" style="stop-color:#45C8FF"></stop> <stop offset="0" style="stop-color:#4ECAFF"></stop> <stop offset="0.2" style="stop-color:#84DAFF"></stop> <stop offset="0.4" style="stop-color:#B0E7FF"></stop> <stop offset="0.6" style="stop-color:#D2F1FF"></stop> <stop offset="0.7" style="stop-color:#EBF9FF"></stop> <stop offset="0.9" style="stop-color:#F9FDFF"></stop> <stop offset="1" style="stop-color:#FFFFFF"></stop> </linearGradient> <path style="opacity:0.8;fill:url(#SVGID_00000158745790767691735530000003365672608540670344_);enable-background:new ;" d=" M34.9,0H10C8.5,0,7.1,0.8,6.3,2.1l-5.7,10c-0.8,1.3-0.8,2.9,0,4.3l5.7,9.9c0.8,1.3,2.2,2.1,3.7,2.1h24.9c1.5,0,2.9-0.8,3.7-2.1 l5.7-9.9c0.8-1.3,0.8-2.9,0-4.3l-5.7-9.9c-0.8-1.3-2.2-2.1-3.7-2.1V0z"></path> <g class="st2"> <path class="st3" d="M14.7,12.4c-0.3,0.3-0.7,0.4-1.2,0.4c-0.2,0-0.4,0-0.6-0.1c-0.2,0-0.3-0.1-0.4-0.1c0,0-0.1,0-0.1-0.1 c0,0,0-0.1,0-0.1l0.1-0.6c0-0.1,0-0.1,0.1-0.1c0.1,0,0.2,0.1,0.3,0.1c0.1,0,0.2,0.1,0.4,0.1c0.3,0,0.5-0.1,0.6-0.2 s0.2-0.4,0.2-0.8V6.1c0-0.1,0-0.1,0.1-0.1H15c0.1,0,0.1,0,0.1,0.1v5C15.1,11.7,15,12.1,14.7,12.4z"></path> </g> <g class="st2"> <path class="st3" d="M18.6,12.6c-0.3,0.1-0.5,0.2-0.9,0.2c-0.5,0-0.8-0.1-1.1-0.4c-0.3-0.2-0.4-0.6-0.4-1c0-0.3,0.1-0.6,0.3-0.9 c0.2-0.2,0.5-0.4,0.8-0.6c0.4-0.1,0.8-0.2,1.3-0.2l0.6,0c0,0,0.1,0,0.1,0s0-0.1,0-0.1V9.4c0-0.3-0.1-0.5-0.3-0.7 c-0.2-0.2-0.4-0.3-0.7-0.3c-0.2,0-0.5,0.1-0.7,0.2c-0.2,0.1-0.4,0.3-0.5,0.5c0,0,0,0.1-0.1,0.1c0,0-0.1,0-0.1,0L16.4,9 c0,0,0,0-0.1,0c0,0,0-0.1,0-0.1c0.2-0.3,0.4-0.6,0.8-0.8s0.8-0.3,1.3-0.3c0.4,0,0.8,0.1,1.1,0.2c0.3,0.1,0.5,0.3,0.6,0.5 c0.1,0.2,0.2,0.5,0.2,0.8v3.2c0,0.1,0,0.1,0,0.1c0,0-0.1,0-0.1,0h-0.6c0,0-0.1,0-0.1,0c0,0,0-0.1,0-0.1l0-0.3 c0-0.1-0.1-0.1-0.2,0C19,12.4,18.8,12.5,18.6,12.6z M19.3,10.3l-0.5,0c-0.2,0-0.5,0-0.7,0.1s-0.4,0.1-0.5,0.2s-0.3,0.2-0.3,0.3 s-0.1,0.3-0.1,0.4c0,0.2,0.1,0.4,0.3,0.6s0.4,0.2,0.7,0.2c0.2,0,0.4,0,0.5-0.1c0.2-0.1,0.3-0.1,0.4-0.2c0.1-0.1,0.2-0.2,0.3-0.3 s0.1-0.2,0.1-0.3v-0.7C19.4,10.3,19.4,10.3,19.3,10.3z"></path> <path class="st3" d="M27.8,7.9c0,0,0,0.1,0,0.1l-1.4,4.5c0,0,0,0.1-0.1,0.1s-0.1,0-0.1,0h-0.5c-0.1,0-0.2,0-0.2-0.1l-1-3.1 c0-0.1,0-0.1-0.1-0.1s0,0,0,0.1l-1,3.1c0,0,0,0.1-0.1,0.1s-0.1,0-0.1,0h-0.6c-0.1,0-0.2,0-0.2-0.1L21.1,8c0,0,0-0.1,0-0.1 s0.1,0,0.1,0h0.7c0,0,0.1,0,0.1,0C22,7.9,22,8,22,8l1,3.2c0,0.1,0,0.1,0.1,0.1s0,0,0.1-0.1l1-3.2c0,0,0-0.1,0.1-0.1 c0,0,0.1,0,0.1,0h0.5c0,0,0.1,0,0.1,0c0,0,0,0,0.1,0.1l1,3.2c0,0.1,0,0.1,0.1,0.1c0,0,0,0,0.1-0.1l1-3.2c0,0,0-0.1,0.1-0.1 s0.1,0,0.1,0L27.8,7.9C27.8,7.9,27.8,7.9,27.8,7.9z"></path> </g> <g class="st2"> <path class="st3" d="M30.6,12.6c-0.3,0.1-0.5,0.2-0.9,0.2c-0.5,0-0.8-0.1-1.1-0.4c-0.3-0.2-0.4-0.6-0.4-1c0-0.3,0.1-0.6,0.3-0.9 c0.2-0.2,0.5-0.4,0.8-0.6c0.4-0.1,0.8-0.2,1.3-0.2l0.6,0c0,0,0.1,0,0.1,0s0-0.1,0-0.1V9.4c0-0.3-0.1-0.5-0.3-0.7 c-0.2-0.2-0.4-0.3-0.7-0.3c-0.2,0-0.5,0.1-0.7,0.2c-0.2,0.1-0.4,0.3-0.5,0.5c0,0,0,0.1-0.1,0.1c0,0-0.1,0-0.1,0L28.4,9 c0,0,0,0-0.1,0c0,0,0-0.1,0-0.1c0.2-0.3,0.4-0.6,0.8-0.8s0.8-0.3,1.3-0.3c0.4,0,0.8,0.1,1.1,0.2c0.3,0.1,0.5,0.3,0.6,0.5 s0.2,0.5,0.2,0.8v3.2c0,0.1,0,0.1,0,0.1c0,0-0.1,0-0.1,0h-0.6c0,0-0.1,0-0.1,0c0,0,0-0.1,0-0.1l0-0.3c0-0.1-0.1-0.1-0.2,0 C31,12.4,30.8,12.5,30.6,12.6z M31.3,10.3l-0.5,0c-0.2,0-0.5,0-0.7,0.1s-0.4,0.1-0.5,0.2s-0.3,0.2-0.3,0.3s-0.1,0.3-0.1,0.4 c0,0.2,0.1,0.4,0.3,0.6s0.4,0.2,0.7,0.2c0.2,0,0.4,0,0.5-0.1s0.3-0.1,0.4-0.2c0.1-0.1,0.2-0.2,0.3-0.3c0.1-0.1,0.1-0.2,0.1-0.3 v-0.7C31.4,10.3,31.4,10.3,31.3,10.3z"></path> </g> <g class="st2"> <path class="st3" d="M7.2,16.2C7.2,16.1,7.2,16.1,7.2,16.2C7.2,16.1,7.2,16,7.3,16h5c0,0,0.1,0,0.1,0c0,0,0,0.1,0,0.1v0.6 c0,0.1,0,0.1-0.1,0.1h-1.8c-0.1,0-0.1,0-0.1,0.1v5.7c0,0.1,0,0.1-0.1,0.1H9.4c-0.1,0-0.1,0-0.1-0.1V17c0-0.1,0-0.1-0.1-0.1H7.3 c-0.1,0-0.1,0-0.1-0.1V16.2z"></path> </g> <g class="st2"> <path class="st3" d="M13.4,21.5c0.1,0.2,0.3,0.4,0.5,0.5c0.2,0.1,0.5,0.2,0.7,0.2c0.3,0,0.5-0.1,0.7-0.2s0.4-0.3,0.6-0.5 c0,0,0,0,0.1,0c0,0,0,0,0.1,0l0.5,0.2c0.1,0,0.1,0.1,0,0.1c-0.2,0.2-0.4,0.5-0.6,0.6c-0.2,0.2-0.4,0.3-0.7,0.3 c-0.2,0.1-0.5,0.1-0.8,0.1c-0.5,0-0.9-0.1-1.2-0.3c-0.4-0.2-0.6-0.5-0.8-0.9s-0.3-0.8-0.3-1.3c0-0.5,0.1-1,0.3-1.4 c0.2-0.4,0.5-0.7,0.8-0.9c0.4-0.2,0.8-0.3,1.2-0.3c0.4,0,0.8,0.1,1.2,0.3c0.3,0.2,0.6,0.5,0.8,0.9s0.3,0.8,0.3,1.3 c0,0.1,0,0.1,0,0.1c0,0-0.1,0.1-0.1,0.1h-3.4c0,0-0.1,0-0.1,0s0,0.1,0,0.1C13.2,21,13.2,21.2,13.4,21.5z M15.7,20 c0.1,0,0.1,0,0.1,0c0,0,0-0.1,0-0.1c0-0.2-0.1-0.4-0.2-0.7s-0.2-0.4-0.4-0.5c-0.2-0.1-0.4-0.2-0.7-0.2c-0.3,0-0.5,0.1-0.7,0.2 c-0.2,0.1-0.4,0.3-0.5,0.5c-0.1,0.2-0.2,0.5-0.2,0.7L15.7,20z"></path> <path class="st3" d="M17.7,22.7v-4.5c0-0.1,0-0.1,0.1-0.1h0.7c0.1,0,0.1,0,0.1,0.1v0.5c0,0,0,0,0,0.1c0,0,0,0,0.1,0 c0.2-0.2,0.4-0.3,0.5-0.4c0.2-0.1,0.3-0.2,0.5-0.3s0.4-0.1,0.6-0.1c0.5,0,0.8,0.1,1.1,0.4c0.3,0.3,0.4,0.6,0.4,1v3.4 c0,0.1-0.1,0.2-0.2,0.2H21c0,0-0.1,0-0.1,0c0,0,0-0.1,0-0.1v-3.2c0-0.3-0.1-0.5-0.2-0.6c-0.1-0.2-0.4-0.2-0.6-0.2 c-0.2,0-0.3,0-0.5,0.1s-0.3,0.1-0.4,0.2c-0.1,0.1-0.3,0.2-0.5,0.4v3.3c0,0.1-0.1,0.2-0.2,0.2h-0.6C17.8,22.8,17.7,22.8,17.7,22.7 z"></path> </g> <g class="st2"> <path class="st3" d="M27.7,17.9c0,0,0,0.1,0,0.1v0.4c0,0.1,0,0.1,0,0.1s-0.1,0-0.1,0c-0.1,0-0.2,0-0.3,0c-0.1,0-0.1,0-0.2,0 c-0.2,0-0.2,0.1-0.2,0.2c0,0.1,0.1,0.1,0.1,0.2s0,0.2,0,0.3c0,0.3-0.1,0.5-0.2,0.7s-0.4,0.4-0.7,0.5c-0.3,0.1-0.7,0.2-1.1,0.2 c-0.3,0-0.5,0-0.7,0.1S24,21,24,21.1c-0.1,0.1-0.1,0.1-0.1,0.2c0,0.1,0.1,0.2,0.2,0.2c0.1,0,0.3,0.1,0.6,0.1l1.2,0.1 c0.6,0,1,0.2,1.2,0.4s0.4,0.5,0.4,0.9c0,0.5-0.2,0.8-0.6,1.1c-0.4,0.3-1,0.4-1.8,0.4c-0.8,0-1.4-0.1-1.8-0.3 c-0.4-0.2-0.6-0.5-0.6-0.9c0-0.2,0.1-0.4,0.2-0.6c0.2-0.2,0.4-0.3,0.6-0.4c0.1,0,0.1-0.1,0-0.1c-0.1-0.1-0.2-0.1-0.3-0.2 C23,21.7,23,21.6,23,21.5c0-0.1,0-0.2,0.1-0.3c0.1-0.1,0.2-0.2,0.3-0.3c0.1-0.1,0.3-0.1,0.4-0.2c0,0,0,0,0.1,0s0,0-0.1-0.1 c-0.3-0.1-0.5-0.3-0.6-0.5s-0.2-0.4-0.2-0.7c0-0.5,0.2-0.8,0.6-1.1c0.4-0.3,0.9-0.4,1.6-0.4c0.3,0,0.6,0,0.8,0.1 c0.2,0.1,0.4,0.2,0.6,0.3c0,0,0.1,0,0.1,0s0.1,0,0.1-0.1c0.1-0.1,0.2-0.1,0.3-0.2c0.1-0.1,0.2-0.1,0.3-0.2c0.1,0,0.2-0.1,0.3-0.1 C27.6,17.9,27.7,17.9,27.7,17.9z M24.2,22.3c-0.1,0-0.2,0-0.4,0.1c-0.1,0.1-0.2,0.1-0.3,0.3c-0.1,0.1-0.1,0.2-0.1,0.4 c0,0.2,0.1,0.3,0.2,0.4s0.3,0.2,0.6,0.3c0.3,0.1,0.6,0.1,1,0.1c0.5,0,0.8-0.1,1.1-0.2c0.2-0.1,0.4-0.3,0.4-0.6 c0-0.2-0.1-0.3-0.2-0.4c-0.1-0.1-0.4-0.2-0.7-0.2L24.2,22.3z M25.9,20.1c0.2-0.2,0.3-0.4,0.3-0.7c0-0.3-0.1-0.5-0.3-0.7 c-0.2-0.2-0.5-0.3-0.9-0.3c-0.4,0-0.7,0.1-0.9,0.3c-0.2,0.2-0.3,0.4-0.3,0.7c0,0.3,0.1,0.5,0.3,0.7c0.2,0.2,0.5,0.3,0.9,0.3 C25.4,20.4,25.7,20.3,25.9,20.1z"></path> </g> <g class="st2"> <path class="st3" d="M30.5,22.7c-0.3,0.1-0.5,0.2-0.9,0.2c-0.5,0-0.8-0.1-1.1-0.4c-0.3-0.2-0.4-0.6-0.4-1c0-0.3,0.1-0.6,0.3-0.9 s0.5-0.4,0.8-0.6c0.4-0.1,0.8-0.2,1.3-0.2l0.6,0c0,0,0.1,0,0.1,0s0-0.1,0-0.1v-0.2c0-0.3-0.1-0.5-0.3-0.7s-0.4-0.3-0.7-0.3 c-0.2,0-0.5,0.1-0.7,0.2c-0.2,0.1-0.4,0.3-0.5,0.5c0,0,0,0.1-0.1,0.1c0,0-0.1,0-0.1,0l-0.6-0.2c0,0,0,0,0,0s0-0.1,0-0.1 c0.2-0.3,0.4-0.6,0.8-0.8s0.8-0.3,1.3-0.3c0.4,0,0.8,0.1,1.1,0.2s0.5,0.3,0.6,0.5c0.1,0.2,0.2,0.5,0.2,0.8v3.2c0,0.1,0,0.1,0,0.1 c0,0-0.1,0-0.1,0h-0.6c0,0-0.1,0-0.1,0s0-0.1,0-0.1l0-0.3c0-0.1-0.1-0.1-0.2,0C30.9,22.5,30.7,22.6,30.5,22.7z M31.2,20.4l-0.5,0 c-0.2,0-0.5,0-0.7,0.1s-0.4,0.1-0.5,0.2s-0.3,0.2-0.3,0.3S29,21.3,29,21.5c0,0.2,0.1,0.4,0.3,0.6s0.4,0.2,0.7,0.2 c0.2,0,0.4,0,0.5-0.1c0.2-0.1,0.3-0.1,0.4-0.2c0.1-0.1,0.2-0.2,0.3-0.3c0.1-0.1,0.1-0.2,0.1-0.3v-0.7 C31.3,20.4,31.3,20.4,31.2,20.4z"></path> <path class="st3" d="M33.5,22.7v-6.5c0-0.1,0-0.1,0.1-0.1h0.7c0.1,0,0.1,0,0.1,0.1v2.4c0,0,0,0,0,0.1c0,0,0,0,0.1,0 c0.2-0.2,0.4-0.3,0.6-0.4s0.3-0.2,0.5-0.2c0.2-0.1,0.4-0.1,0.6-0.1c0.5,0,0.8,0.1,1.1,0.4s0.4,0.6,0.4,1v3.3 c0,0.1-0.1,0.2-0.2,0.2h-0.7c0,0-0.1,0-0.1,0c0,0,0-0.1,0-0.1v-3.2c0-0.3-0.1-0.5-0.2-0.6c-0.1-0.2-0.4-0.2-0.6-0.2 c-0.2,0-0.3,0-0.5,0.1s-0.3,0.1-0.4,0.2c-0.1,0.1-0.3,0.2-0.5,0.4v3.3c0,0.1-0.1,0.2-0.2,0.2h-0.6C33.5,22.8,33.5,22.8,33.5,22.7 z"></path> </g> </g> </g> </svg> 