<?xml version="1.0" encoding="UTF-8"?> <svg xmlns="http://www.w3.org/2000/svg" xmlns:xlink="http://www.w3.org/1999/xlink" version="1.1" id="Layer_2_00000085947831693533236050000006481475177914791611_" x="0px" y="0px" viewBox="0 0 44.9 58.2" style="enable-background:new 0 0 44.9 58.2;" xml:space="preserve"> <style type="text/css"> .st0{fill:none;stroke:url(#SVGID_1_);stroke-linecap:round;stroke-miterlimit:10;} .st1{opacity:0.8;fill:url(#SVGID_00000116220358761202475410000007227824379084918401_);enable-background:new ;} .st2{enable-background:new ;} .st3{fill:#231F20;} </style> <g id="Layer_2-2"> <g> <linearGradient id="SVGID_1_" gradientUnits="userSpaceOnUse" x1="21.9" y1="45.3511" x2="22.9" y2="45.3511" gradientTransform="matrix(1 0 0 -1 0 60.5511)"> <stop offset="0" style="stop-color:#45C8FF"></stop> <stop offset="0" style="stop-color:#4ECAFF"></stop> <stop offset="0.2" style="stop-color:#84DAFF"></stop> <stop offset="0.4" style="stop-color:#B0E7FF"></stop> <stop offset="0.6" style="stop-color:#D2F1FF"></stop> <stop offset="0.7" style="stop-color:#EBF9FF"></stop> <stop offset="0.9" style="stop-color:#F9FDFF"></stop> <stop offset="1" style="stop-color:#FFFFFF"></stop> </linearGradient> <line class="st0" x1="22.4" y1="0.5" x2="22.4" y2="29.9"></line> <linearGradient id="SVGID_00000134223549556727048380000000434032949034391434_" gradientUnits="userSpaceOnUse" x1="1.490116e-08" y1="16.5011" x2="44.9" y2="16.5011" gradientTransform="matrix(1 0 0 -1 0 60.5511)"> <stop offset="0" style="stop-color:#45C8FF"></stop> <stop offset="0" style="stop-color:#4ECAFF"></stop> <stop offset="0.2" style="stop-color:#84DAFF"></stop> <stop offset="0.4" style="stop-color:#B0E7FF"></stop> <stop offset="0.6" style="stop-color:#D2F1FF"></stop> <stop offset="0.7" style="stop-color:#EBF9FF"></stop> <stop offset="0.9" style="stop-color:#F9FDFF"></stop> <stop offset="1" style="stop-color:#FFFFFF"></stop> </linearGradient> <path style="opacity:0.8;fill:url(#SVGID_00000134223549556727048380000000434032949034391434_);enable-background:new ;" d=" M34.9,29.9H10c-1.5,0-2.9,0.8-3.7,2.1l-5.7,9.9c-0.8,1.3-0.8,2.9,0,4.3l5.7,9.9c0.8,1.3,2.2,2.1,3.7,2.1h24.9 c1.5,0,2.9-0.8,3.7-2.1l5.7-9.9c0.8-1.3,0.8-2.9,0-4.3L38.6,32C37.8,30.7,36.4,29.9,34.9,29.9z"></path> <g class="st2"> <path class="st3" d="M14.7,42.5c-0.3,0.3-0.7,0.4-1.2,0.4c-0.2,0-0.4,0-0.6-0.1c-0.2,0-0.3-0.1-0.4-0.1c0,0-0.1,0-0.1-0.1 c0,0,0-0.1,0-0.1l0.1-0.6c0-0.1,0-0.1,0.1-0.1c0.1,0,0.2,0.1,0.3,0.1c0.1,0,0.2,0.1,0.4,0.1c0.3,0,0.5-0.1,0.6-0.2S14,41.3,14,41 v-4.8c0-0.1,0-0.1,0.1-0.1H15c0.1,0,0.1,0,0.1,0.1v5C15.1,41.8,15,42.2,14.7,42.5z"></path> </g> <g class="st2"> <path class="st3" d="M18.6,42.7c-0.3,0.1-0.5,0.2-0.9,0.2c-0.5,0-0.8-0.1-1.1-0.4c-0.3-0.2-0.4-0.6-0.4-1c0-0.3,0.1-0.6,0.3-0.9 c0.2-0.2,0.5-0.4,0.8-0.6c0.4-0.1,0.8-0.2,1.3-0.2l0.6,0c0,0,0.1,0,0.1,0s0-0.1,0-0.1v-0.2c0-0.3-0.1-0.5-0.3-0.7 c-0.2-0.2-0.4-0.3-0.7-0.3c-0.2,0-0.5,0.1-0.7,0.2c-0.2,0.1-0.4,0.3-0.5,0.5c0,0,0,0.1-0.1,0.1c0,0-0.1,0-0.1,0l-0.6-0.2 c0,0,0,0-0.1,0c0,0,0-0.1,0-0.1c0.2-0.3,0.4-0.6,0.8-0.8s0.8-0.3,1.3-0.3c0.4,0,0.8,0.1,1.1,0.2c0.3,0.1,0.5,0.3,0.6,0.5 c0.1,0.2,0.2,0.5,0.2,0.8v3.2c0,0.1,0,0.1,0,0.1c0,0-0.1,0-0.1,0h-0.6c0,0-0.1,0-0.1,0c0,0,0-0.1,0-0.1l0-0.3 c0-0.1-0.1-0.1-0.2,0C19,42.5,18.8,42.6,18.6,42.7z M19.3,40.4l-0.5,0c-0.2,0-0.5,0-0.7,0.1s-0.4,0.1-0.5,0.2s-0.3,0.2-0.3,0.3 s-0.1,0.3-0.1,0.4c0,0.2,0.1,0.4,0.3,0.6s0.4,0.2,0.7,0.2c0.2,0,0.4,0,0.5-0.1c0.2-0.1,0.3-0.1,0.4-0.2c0.1-0.1,0.2-0.2,0.3-0.3 s0.1-0.2,0.1-0.3v-0.7C19.4,40.4,19.4,40.4,19.3,40.4z"></path> <path class="st3" d="M27.8,38c0,0,0,0.1,0,0.1l-1.4,4.5c0,0,0,0.1-0.1,0.1s-0.1,0-0.1,0h-0.5c-0.1,0-0.2,0-0.2-0.1l-1-3.1 c0-0.1,0-0.1-0.1-0.1s0,0,0,0.1l-1,3.1c0,0,0,0.1-0.1,0.1s-0.1,0-0.1,0h-0.6c-0.1,0-0.2,0-0.2-0.1l-1.4-4.5c0,0,0-0.1,0-0.1 s0.1,0,0.1,0h0.7c0,0,0.1,0,0.1,0c0,0,0.1,0,0.1,0.1l1,3.2c0,0.1,0,0.1,0.1,0.1s0,0,0.1-0.1l1-3.2c0,0,0-0.1,0.1-0.1 c0,0,0.1,0,0.1,0h0.5c0,0,0.1,0,0.1,0c0,0,0,0,0.1,0.1l1,3.2c0,0.1,0,0.1,0.1,0.1c0,0,0,0,0.1-0.1l1-3.2c0,0,0-0.1,0.1-0.1 s0.1,0,0.1,0L27.8,38C27.8,38,27.8,38,27.8,38z"></path> </g> <g class="st2"> <path class="st3" d="M30.6,42.7c-0.3,0.1-0.5,0.2-0.9,0.2c-0.5,0-0.8-0.1-1.1-0.4c-0.3-0.2-0.4-0.6-0.4-1c0-0.3,0.1-0.6,0.3-0.9 c0.2-0.2,0.5-0.4,0.8-0.6c0.4-0.1,0.8-0.2,1.3-0.2l0.6,0c0,0,0.1,0,0.1,0s0-0.1,0-0.1v-0.2c0-0.3-0.1-0.5-0.3-0.7 c-0.2-0.2-0.4-0.3-0.7-0.3c-0.2,0-0.5,0.1-0.7,0.2c-0.2,0.1-0.4,0.3-0.5,0.5c0,0,0,0.1-0.1,0.1c0,0-0.1,0-0.1,0l-0.6-0.2 c0,0,0,0-0.1,0c0,0,0-0.1,0-0.1c0.2-0.3,0.4-0.6,0.8-0.8s0.8-0.3,1.3-0.3c0.4,0,0.8,0.1,1.1,0.2c0.3,0.1,0.5,0.3,0.6,0.5 s0.2,0.5,0.2,0.8v3.2c0,0.1,0,0.1,0,0.1c0,0-0.1,0-0.1,0h-0.6c0,0-0.1,0-0.1,0c0,0,0-0.1,0-0.1l0-0.3c0-0.1-0.1-0.1-0.2,0 C31,42.5,30.8,42.6,30.6,42.7z M31.3,40.4l-0.5,0c-0.2,0-0.5,0-0.7,0.1s-0.4,0.1-0.5,0.2s-0.3,0.2-0.3,0.3s-0.1,0.3-0.1,0.4 c0,0.2,0.1,0.4,0.3,0.6s0.4,0.2,0.7,0.2c0.2,0,0.4,0,0.5-0.1s0.3-0.1,0.4-0.2c0.1-0.1,0.2-0.2,0.3-0.3c0.1-0.1,0.1-0.2,0.1-0.3 v-0.7C31.4,40.4,31.4,40.4,31.3,40.4z"></path> </g> <g class="st2"> <path class="st3" d="M11.5,52.9C11.5,52.8,11.5,52.8,11.5,52.9l0-6.6c0,0,0-0.1,0-0.1s0.1,0,0.1,0h2.2c0.8,0,1.5,0.1,1.9,0.4 c0.4,0.3,0.7,0.7,0.7,1.3c0,0.4-0.1,0.7-0.3,0.9c-0.2,0.2-0.5,0.4-0.9,0.6c0,0,0,0,0,0s0,0,0,0c0.4,0.1,0.8,0.3,1,0.6 s0.3,0.6,0.3,1c0,0.6-0.2,1.1-0.7,1.4c-0.5,0.3-1.1,0.4-2,0.4h-2.3C11.6,52.9,11.6,52.9,11.5,52.9z M14,49.1c0.2,0,0.3,0,0.5-0.1 c0.2,0,0.3-0.1,0.4-0.2c0.1-0.1,0.2-0.2,0.3-0.3c0.1-0.1,0.1-0.3,0.1-0.5c0-0.4-0.1-0.6-0.4-0.8c-0.3-0.2-0.6-0.3-1.1-0.3h-1.1 c-0.1,0-0.1,0-0.1,0.1V49c0,0.1,0,0.1,0.1,0.1H14z M13.9,52.1c0.5,0,0.9-0.1,1.2-0.3c0.3-0.2,0.4-0.5,0.4-0.8 c0-0.3-0.1-0.5-0.2-0.7c-0.1-0.2-0.3-0.3-0.5-0.4c-0.2-0.1-0.5-0.1-0.8-0.1h-1.2c-0.1,0-0.1,0-0.1,0.1v2c0,0.1,0,0.1,0.1,0.1 H13.9z"></path> <path class="st3" d="M19.8,52.8c-0.3,0.1-0.5,0.2-0.9,0.2c-0.5,0-0.8-0.1-1.1-0.4c-0.3-0.2-0.4-0.6-0.4-1c0-0.3,0.1-0.6,0.3-0.9 c0.2-0.2,0.5-0.4,0.8-0.6c0.4-0.1,0.8-0.2,1.3-0.2l0.6,0c0,0,0.1,0,0.1,0s0-0.1,0-0.1v-0.2c0-0.3-0.1-0.5-0.3-0.7 c-0.2-0.2-0.4-0.3-0.7-0.3c-0.2,0-0.5,0.1-0.7,0.2c-0.2,0.1-0.4,0.3-0.5,0.5c0,0,0,0.1-0.1,0.1c0,0-0.1,0-0.1,0l-0.6-0.2 c0,0,0,0-0.1,0c0,0,0-0.1,0-0.1c0.2-0.3,0.4-0.6,0.8-0.8s0.8-0.3,1.3-0.3c0.4,0,0.8,0.1,1.1,0.2c0.3,0.1,0.5,0.3,0.6,0.5 c0.1,0.2,0.2,0.5,0.2,0.8v3.2c0,0.1,0,0.1,0,0.1c0,0-0.1,0-0.1,0h-0.6c0,0-0.1,0-0.1,0c0,0,0-0.1,0-0.1l0-0.3 c0-0.1-0.1-0.1-0.2,0C20.3,52.6,20,52.7,19.8,52.8z M20.5,50.5l-0.5,0c-0.2,0-0.5,0-0.7,0.1s-0.4,0.1-0.5,0.2s-0.3,0.2-0.3,0.3 s-0.1,0.3-0.1,0.4c0,0.2,0.1,0.4,0.3,0.6s0.4,0.2,0.7,0.2c0.2,0,0.4,0,0.5-0.1c0.2-0.1,0.3-0.1,0.4-0.2c0.1-0.1,0.2-0.2,0.3-0.3 s0.1-0.2,0.1-0.3v-0.7C20.6,50.5,20.6,50.5,20.5,50.5z"></path> </g> <g class="st2"> <path class="st3" d="M22.9,52.9c0,0,0-0.1,0-0.1v-4.5c0-0.1,0-0.1,0.1-0.1h0.7c0.1,0,0.1,0,0.1,0.1v0.6c0,0,0,0.1,0,0.1 s0,0,0.1,0c0.2-0.2,0.3-0.3,0.5-0.5c0.2-0.1,0.3-0.2,0.5-0.3C25,48,25.1,48,25.3,48c0.2,0,0.3,0,0.3,0.1v0.7c0,0.1,0,0.1-0.1,0.1 c-0.1,0-0.2,0-0.2,0c-0.1,0-0.2,0-0.3,0c-0.1,0-0.3,0-0.4,0.1s-0.3,0.1-0.4,0.2c-0.1,0.1-0.2,0.2-0.3,0.3s-0.1,0.2-0.1,0.4v2.9 c0,0.1-0.1,0.2-0.2,0.2H23C22.9,52.9,22.9,52.9,22.9,52.9z"></path> </g> <g class="st2"> <path class="st3" d="M28.4,52.8c-0.3,0.1-0.5,0.2-0.9,0.2c-0.5,0-0.8-0.1-1.1-0.4c-0.3-0.2-0.4-0.6-0.4-1c0-0.3,0.1-0.6,0.3-0.9 c0.2-0.2,0.5-0.4,0.8-0.6c0.4-0.1,0.8-0.2,1.3-0.2l0.6,0c0,0,0.1,0,0.1,0s0-0.1,0-0.1v-0.2c0-0.3-0.1-0.5-0.3-0.7 c-0.2-0.2-0.4-0.3-0.7-0.3c-0.2,0-0.5,0.1-0.7,0.2c-0.2,0.1-0.4,0.3-0.5,0.5c0,0,0,0.1-0.1,0.1c0,0-0.1,0-0.1,0l-0.6-0.2 c0,0,0,0-0.1,0c0,0,0-0.1,0-0.1c0.2-0.3,0.4-0.6,0.8-0.8s0.8-0.3,1.3-0.3c0.4,0,0.8,0.1,1.1,0.2c0.3,0.1,0.5,0.3,0.6,0.5 s0.2,0.5,0.2,0.8v3.2c0,0.1,0,0.1,0,0.1c0,0-0.1,0-0.1,0h-0.6c0,0-0.1,0-0.1,0c0,0,0-0.1,0-0.1l0-0.3c0-0.1-0.1-0.1-0.2,0 C28.8,52.6,28.6,52.7,28.4,52.8z M29.1,50.5l-0.5,0c-0.2,0-0.5,0-0.7,0.1s-0.4,0.1-0.5,0.2s-0.3,0.2-0.3,0.3s-0.1,0.3-0.1,0.4 c0,0.2,0.1,0.4,0.3,0.6s0.4,0.2,0.7,0.2c0.2,0,0.4,0,0.5-0.1s0.3-0.1,0.4-0.2c0.1-0.1,0.2-0.2,0.3-0.3c0.1-0.1,0.1-0.2,0.1-0.3 v-0.7C29.2,50.5,29.2,50.5,29.1,50.5z"></path> </g> <g class="st2"> <path class="st3" d="M32.7,48.8C32.7,48.8,32.7,48.8,32.7,48.8l-0.1,2.8c0,0.3,0,0.4,0.1,0.5c0.1,0.1,0.2,0.1,0.4,0.1h0.6 c0,0,0.1,0,0.1,0c0,0,0,0,0,0.1v0.4c0,0.1,0,0.1-0.1,0.2c-0.1,0-0.2,0-0.3,0c-0.1,0-0.2,0-0.3,0c-0.1,0-0.2,0-0.3,0 c-0.4,0-0.7-0.1-0.9-0.3c-0.2-0.2-0.3-0.5-0.3-0.9v-2.9c0-0.1,0-0.1-0.1-0.1h-0.7c-0.1,0-0.1,0-0.1-0.1v-0.5c0-0.1,0-0.1,0.1-0.1 h0.7c0,0,0.1,0,0.1-0.1l0.1-1.4c0-0.1,0-0.1,0.1-0.1h0.6c0.1,0,0.1,0,0.1,0.1V48c0,0.1,0,0.1,0.1,0.1h1.1c0.1,0,0.1,0,0.1,0.1 v0.5c0,0.1,0,0.1-0.1,0.1H32.7z"></path> </g> </g> </g> </svg> 