<?xml version="1.0" encoding="UTF-8"?> <svg xmlns="http://www.w3.org/2000/svg" xmlns:xlink="http://www.w3.org/1999/xlink" version="1.1" id="Layer_2_00000023978297658785768990000003893488049077451951_" x="0px" y="0px" viewBox="0 0 32.3 56.2" style="enable-background:new 0 0 32.3 56.2;" xml:space="preserve"> <style type="text/css"> .st0{fill:none;stroke:url(#SVGID_1_);stroke-linecap:round;stroke-miterlimit:10;} .st1{opacity:0.8;fill:url(#SVGID_00000040550094584750906840000013103169324235633597_);enable-background:new ;} .st2{enable-background:new ;} .st3{fill:#231F20;} </style> <g id="Layer_2-2"> <g> <linearGradient id="SVGID_1_" gradientUnits="userSpaceOnUse" x1="15.7" y1="21.3511" x2="16.7" y2="21.3511" gradientTransform="matrix(1 0 0 -1 0 58.5511)"> <stop offset="0" style="stop-color:#45C8FF"></stop> <stop offset="0" style="stop-color:#4ECAFF"></stop> <stop offset="0.2" style="stop-color:#84DAFF"></stop> <stop offset="0.4" style="stop-color:#B0E7FF"></stop> <stop offset="0.6" style="stop-color:#D2F1FF"></stop> <stop offset="0.7" style="stop-color:#EBF9FF"></stop> <stop offset="0.9" style="stop-color:#F9FDFF"></stop> <stop offset="1" style="stop-color:#FFFFFF"></stop> </linearGradient> <line class="st0" x1="16.2" y1="18.7" x2="16.2" y2="55.7"></line> <linearGradient id="SVGID_00000091017383861322259410000010509881978225697700_" gradientUnits="userSpaceOnUse" x1="1.490116e-08" y1="49.2011" x2="32.3" y2="49.2011" gradientTransform="matrix(1 0 0 -1 0 58.5511)"> <stop offset="0" style="stop-color:#45C8FF"></stop> <stop offset="0" style="stop-color:#4ECAFF"></stop> <stop offset="0.2" style="stop-color:#84DAFF"></stop> <stop offset="0.4" style="stop-color:#B0E7FF"></stop> <stop offset="0.6" style="stop-color:#D2F1FF"></stop> <stop offset="0.7" style="stop-color:#EBF9FF"></stop> <stop offset="0.9" style="stop-color:#F9FDFF"></stop> <stop offset="1" style="stop-color:#FFFFFF"></stop> </linearGradient> <path style="opacity:0.8;fill:url(#SVGID_00000091017383861322259410000010509881978225697700_);enable-background:new ;" d=" M25.1,0H7.2C5.7,0,4.3,0.8,3.5,2.1L0.6,7.2c-0.8,1.3-0.8,2.9,0,4.3l2.9,5.1c0.8,1.3,2.2,2.1,3.7,2.1h17.9c1.5,0,2.9-0.8,3.7-2.1 l2.9-5.1c0.8-1.3,0.8-2.9,0-4.3l-2.9-5.1C28,0.8,26.6,0,25.1,0z"></path> <g class="st2"> <path class="st3" d="M9,12.4C9,12.3,9,12.3,9,12.4l0-6.6c0,0,0-0.1,0-0.1s0.1,0,0.1,0h2.2c0.8,0,1.5,0.1,1.9,0.4 C13.7,6.4,14,6.8,14,7.4c0,0.4-0.1,0.7-0.3,0.9c-0.2,0.2-0.5,0.4-0.9,0.6c0,0,0,0,0,0s0,0,0,0c0.4,0.1,0.8,0.3,1,0.6 s0.3,0.6,0.3,1c0,0.6-0.2,1.1-0.7,1.4c-0.5,0.3-1.1,0.4-2,0.4H9.1C9.1,12.4,9.1,12.4,9,12.4z M11.5,8.6c0.2,0,0.3,0,0.5-0.1 c0.2,0,0.3-0.1,0.4-0.2c0.1-0.1,0.2-0.2,0.3-0.3c0.1-0.1,0.1-0.3,0.1-0.5c0-0.4-0.1-0.6-0.4-0.8c-0.3-0.2-0.6-0.3-1.1-0.3h-1.1 c-0.1,0-0.1,0-0.1,0.1v1.9c0,0.1,0,0.1,0.1,0.1H11.5z M11.4,11.6c0.5,0,0.9-0.1,1.2-0.3c0.3-0.2,0.4-0.5,0.4-0.8 c0-0.3-0.1-0.5-0.2-0.7c-0.1-0.2-0.3-0.3-0.5-0.4c-0.2-0.1-0.5-0.1-0.8-0.1h-1.2c-0.1,0-0.1,0-0.1,0.1v2c0,0.1,0,0.1,0.1,0.1 H11.4z"></path> <path class="st3" d="M17.3,12.3c-0.3,0.1-0.5,0.2-0.9,0.2c-0.5,0-0.8-0.1-1.1-0.4c-0.3-0.2-0.4-0.6-0.4-1c0-0.3,0.1-0.6,0.3-0.9 c0.2-0.2,0.5-0.4,0.8-0.6c0.4-0.1,0.8-0.2,1.3-0.2l0.6,0c0,0,0.1,0,0.1,0s0-0.1,0-0.1V9.1c0-0.3-0.1-0.5-0.3-0.7 c-0.2-0.2-0.4-0.3-0.7-0.3c-0.2,0-0.5,0.1-0.7,0.2c-0.2,0.1-0.4,0.3-0.5,0.5c0,0,0,0.1-0.1,0.1c0,0-0.1,0-0.1,0l-0.6-0.2 c0,0,0,0-0.1,0c0,0,0-0.1,0-0.1c0.2-0.3,0.4-0.6,0.8-0.8s0.8-0.3,1.3-0.3c0.4,0,0.8,0.1,1.1,0.2c0.3,0.1,0.5,0.3,0.6,0.5 s0.2,0.5,0.2,0.8v3.2c0,0.1,0,0.1,0,0.1c0,0-0.1,0-0.1,0h-0.6c0,0-0.1,0-0.1,0c0,0,0-0.1,0-0.1l0-0.3c0-0.1-0.1-0.1-0.2,0 C17.8,12.1,17.5,12.2,17.3,12.3z M18,10l-0.5,0c-0.2,0-0.5,0-0.7,0.1c-0.2,0.1-0.4,0.1-0.5,0.2s-0.3,0.2-0.3,0.3 s-0.1,0.3-0.1,0.4c0,0.2,0.1,0.4,0.3,0.6s0.4,0.2,0.7,0.2c0.2,0,0.4,0,0.5-0.1s0.3-0.1,0.4-0.2c0.1-0.1,0.2-0.2,0.3-0.3 c0.1-0.1,0.1-0.2,0.1-0.3v-0.7C18.1,10,18.1,10,18,10z"></path> <path class="st3" d="M21.3,12.2c0,0.1,0,0.1,0,0.1s-0.1,0-0.2,0h-0.6c-0.1,0-0.2,0-0.2-0.1l0-6.5c0-0.1,0-0.1,0.1-0.1h0.7 c0.1,0,0.1,0,0.1,0.1V12.2z"></path> <path class="st3" d="M23.5,6.6c0,0.1-0.1,0.2-0.2,0.2h-0.7c-0.1,0-0.1,0-0.1,0s0-0.1,0-0.1V5.8c0-0.1,0-0.2,0.1-0.2h0.8 c0.1,0,0.1,0,0.1,0.1V6.6z M23.5,12.2c0,0.1,0,0.1,0,0.1s-0.1,0-0.1,0h-0.6c-0.1,0-0.1,0-0.1,0c0,0,0-0.1,0-0.1V7.7 c0-0.1,0-0.1,0.1-0.1h0.7c0.1,0,0.1,0,0.1,0.1V12.2z"></path> </g> </g> </g> </svg> 