<?xml version="1.0" encoding="UTF-8"?> <svg xmlns="http://www.w3.org/2000/svg" xmlns:xlink="http://www.w3.org/1999/xlink" id="Layer_2" data-name="Layer 2" viewBox="0 0 1916.9 1080" width="1916.9" height="1080"><defs><style> .cls-1 { fill: url(#linear-gradient-2); } .cls-2 { clip-path: url(#clippath); } .cls-3 { fill: none; } .cls-4 { fill: url(#linear-gradient); } </style><clipPath id="clippath"><rect class="cls-3" width="1916.9" height="1080"></rect></clipPath><linearGradient id="linear-gradient" x1="426.9" y1="1551.1" x2="-357.6" y2="608.9" gradientUnits="userSpaceOnUse"><stop offset="0" stop-color="#fff"></stop><stop offset=".1" stop-color="#d6eef9"></stop><stop offset=".3" stop-color="#a1d9f1"></stop><stop offset=".4" stop-color="#74c8eb"></stop><stop offset=".6" stop-color="#52bae6"></stop><stop offset=".8" stop-color="#39b0e2"></stop><stop offset=".9" stop-color="#2babe0"></stop><stop offset="1" stop-color="#26a9e0"></stop></linearGradient><linearGradient id="linear-gradient-2" x1="1206.3" y1="-329.3" x2="2253.2" y2="137.9" xlink:href="#linear-gradient"></linearGradient></defs><g id="Layer_2-2" data-name="Layer 2"><g class="cls-2"><path class="cls-4" d="M310.2,533.8c24.6,0,47.5,13.2,59.8,34.5l275.5,477.2c12.3,21.3,12.3,47.7,0,69l-275.5,477.2c-12.3,21.3-35.2,34.5-59.8,34.5H-240.8c-24.6,0-47.5-13.2-59.8-34.5l-275.5-477.2c-12.3-21.3-12.3-47.7,0-69l275.5-477.2c12.3-21.3,35.2-34.5,59.8-34.5H310.2m0-1H-240.8c-25,0-48.1,13.3-60.6,35l-275.5,477.2c-12.5,21.7-12.5,48.3,0,70l275.5,477.2c12.5,21.7,35.6,35,60.6,35H310.2c25,0,48.1-13.3,60.6-35l275.5-477.2c12.5-21.7,12.5-48.3,0-70l-275.5-477.2c-12.5-21.7-35.6-35-60.6-35h0Z"></path><path class="cls-1" d="M2005.3-641.9c24.6,0,47.5,13.2,59.8,34.5l275.5,477.2c12.3,21.3,12.3,47.7,0,69l-275.5,477.2c-12.3,21.3-35.2,34.5-59.8,34.5h-551c-24.6,0-47.5-13.2-59.8-34.5L1119-61.2c-12.3-21.3-12.3-47.7,0-69l275.5-477.2c12.3-21.3,35.2-34.5,59.8-34.5h551m0-1h-551c-25,0-48.1,13.3-60.6,35l-275.5,477.2c-12.5,21.7-12.5,48.3,0,70l275.5,477.2c12.5,21.7,35.6,35,60.6,35h551c25,0,48.1-13.3,60.6-35L2341.4-60.7c12.5-21.7,12.5-48.3,0-70l-275.5-477.2c-12.5-21.7-35.6-35-60.6-35h0Z"></path></g></g></svg> 